<svg width="863" height="1043" viewBox="0 0 863 1043" fill="none" xmlns="http://www.w3.org/2000/svg">
<path fill-rule="evenodd" clip-rule="evenodd" d="M164.13 176.283C164.13 176.283 127.22 190.423 115.2 197.283C103.18 204.143 91.6003 216.573 95.4603 238.003C99.3203 259.433 85.5903 305.723 85.5903 305.723C85.5903 305.723 82.3702 322.663 86.2302 325.873C90.0902 329.083 113.7 305.723 113.7 305.723C113.7 305.723 139.7 401.103 146.09 407.963C152.48 414.823 104.46 392.963 104.46 392.963C104.46 392.963 50.3802 368.323 32.7902 389.963C15.2002 411.603 -4.7698 423.823 1.0202 442.033C6.8102 460.243 42.0202 523.903 55.7402 525.623C69.4602 527.343 87.2802 531.403 91.3602 533.973C95.4402 536.543 117.97 541.263 122.9 553.693C127.83 566.123 141.14 561.623 141.14 561.623C141.14 561.623 156.37 568.693 156.37 575.553V583.483L187.7 598.693L179.11 620.563L145.2 683.993L145.62 692.603C213.281 708.336 283.65 708.336 351.31 692.603L351.74 683.993L317.83 620.563L309.24 598.693L340.57 583.483V575.553C340.57 568.693 355.8 561.623 355.8 561.623C355.8 561.623 369.1 566.123 374.03 553.693C378.96 541.263 401.5 536.543 405.58 533.973C409.66 531.403 427.47 527.333 441.2 525.623C454.93 523.913 490.12 460.253 495.92 442.033C501.72 423.813 481.75 411.603 464.15 389.963C446.55 368.323 392.48 392.963 392.48 392.963C392.48 392.963 344.41 414.823 350.85 407.963C357.29 401.103 383.24 305.723 383.24 305.723C383.24 305.723 406.85 329.093 410.71 325.873C412.44 324.433 412.71 320.223 412.56 316.033C412.372 312.574 411.968 309.131 411.35 305.723C411.35 305.723 397.61 259.433 401.48 238.003C405.35 216.573 393.75 204.143 381.74 197.283C369.73 190.423 332.81 176.283 332.81 176.283L310.25 158.613L248.47 152.133L186.69 158.613L164.13 176.283Z" fill="white"/>
<path fill-rule="evenodd" clip-rule="evenodd" d="M248.47 242.961C265.47 242.371 303.57 237.961 319.65 211.041C340.65 175.871 353.31 167.231 350.35 162.801C347.39 158.371 329.05 149.351 325.2 157.481C321.35 165.611 309.74 174.691 305.01 178.091C300.28 181.491 297.39 181.711 297.39 181.711C305.83 176.821 325.81 152.411 321.1 146.131C313.19 135.611 311.38 151.341 305.44 151.641C305.44 151.641 307.33 144.701 307.78 143.411C308.23 142.121 311.58 136.201 311.58 130.891C311.58 125.581 316.46 50.8108 311.73 40.1708C307.45 30.5708 291.73 5.10083 266.55 0.650827H266.46C263.677 0.161939 260.854 -0.052439 258.03 0.0108124C254.38 0.0708124 251.22 0.140815 248.47 0.200815C233.96 0.500815 231.01 0.610827 230.47 0.650827H230.38C205.19 5.10083 189.48 30.5708 185.2 40.1708C180.47 50.8108 185.35 125.571 185.35 130.891C185.35 136.211 188.71 142.111 189.15 143.411C189.59 144.711 191.49 151.641 191.49 151.641C185.56 151.341 183.74 135.641 175.83 146.131C171.12 152.411 191.1 176.821 199.54 181.711C199.54 181.711 196.65 181.491 191.92 178.091C187.19 174.691 175.58 165.611 171.73 157.481C167.88 149.351 149.54 158.371 146.58 162.801C143.62 167.231 156.27 175.871 177.28 211.041C193.36 237.971 231.49 242.371 248.46 242.961" fill="white"/>
<path fill-rule="evenodd" clip-rule="evenodd" d="M201.119 75.1875C201.119 75.1875 199.939 93.8075 198.899 96.0175C197.859 98.2275 209.209 106.297 211.029 110.497C212.849 114.697 234.529 96.6675 245.539 95.4975C247.487 95.7075 249.452 95.7075 251.399 95.4975C262.399 96.6675 284.079 114.697 285.909 110.497C287.739 106.297 299.069 98.2375 298.039 96.0175C297.009 93.7975 295.819 75.1875 295.819 75.1875C277.179 82.8375 256.819 86.9075 248.469 87.1875C240.169 86.9575 219.759 82.8875 201.119 75.1875Z" fill="black"/>
<path fill-rule="evenodd" clip-rule="evenodd" d="M72.2008 95.8216L89.2807 80.8816C90.4839 79.8238 91.2194 78.3327 91.3262 76.7342C91.4331 75.1357 90.9025 73.56 89.8507 72.3516L79.6307 60.6916C78.5666 59.4908 77.0718 58.7585 75.4709 58.6537C73.87 58.5488 72.2923 59.0799 71.0808 60.1316L54.0007 75.0716C52.7965 76.1292 52.0614 77.6215 51.9564 79.2207C51.8514 80.82 52.3852 82.3956 53.4407 83.6016L63.6607 95.2816C64.723 96.4817 66.2162 97.2138 67.8155 97.3186C69.4148 97.4235 70.9908 96.8927 72.2008 95.8416" fill="white"/>
<path fill-rule="evenodd" clip-rule="evenodd" d="M114.469 150.283L119.339 155.833L111.339 162.833C109.732 164.245 108.75 166.236 108.608 168.371C108.465 170.506 109.174 172.61 110.579 174.223L112.689 176.623C114.105 178.231 116.1 179.214 118.238 179.356C120.375 179.499 122.483 178.789 124.099 177.383L132.099 170.383L161.949 204.383C164.432 207.201 167.929 208.923 171.677 209.17C175.425 209.417 179.118 208.171 181.949 205.703L183.949 203.923C186.762 201.45 188.48 197.963 188.727 194.226C188.974 190.488 187.731 186.806 185.269 183.983L155.409 149.983L163.409 142.983C165.019 141.57 166.003 139.577 166.146 137.44C166.288 135.303 165.577 133.197 164.169 131.583L162.059 129.183C160.642 127.576 158.647 126.596 156.509 126.455C154.371 126.314 152.265 127.026 150.649 128.433L142.649 135.433L137.789 129.883L121.569 134.883L114.469 150.283Z" fill="white"/>
<path fill-rule="evenodd" clip-rule="evenodd" d="M107.621 142.477L113.291 148.947L119.471 135.547L109.381 138.647L107.621 142.477Z" fill="white"/>
<path fill-rule="evenodd" clip-rule="evenodd" d="M105.35 139.897L106.44 141.137L107.28 139.297L105.35 139.897Z" fill="white"/>
<path fill-rule="evenodd" clip-rule="evenodd" d="M122.49 132.896L136.6 128.546L130.93 122.086L126.9 123.326L122.49 132.896Z" fill="white"/>
<path fill-rule="evenodd" clip-rule="evenodd" d="M110.311 136.657L120.38 133.547L124.801 123.977L114.711 127.087L110.311 136.657Z" fill="black"/>
<path fill-rule="evenodd" clip-rule="evenodd" d="M100.77 134.667L104.17 138.547L108.2 137.307L112.609 127.727L102.53 130.837L100.77 134.667Z" fill="white"/>
<path fill-rule="evenodd" clip-rule="evenodd" d="M98.5 132.082L99.5801 133.322L100.43 131.492L98.5 132.082Z" fill="white"/>
<path fill-rule="evenodd" clip-rule="evenodd" d="M127.82 121.34L129.75 120.74L128.66 119.5L127.82 121.34Z" fill="white"/>
<path fill-rule="evenodd" clip-rule="evenodd" d="M115.631 125.091L125.721 121.981L127.481 118.151L124.081 114.281L120.051 115.521L115.631 125.091Z" fill="white"/>
<path fill-rule="evenodd" clip-rule="evenodd" d="M103.449 128.852L113.529 125.742L117.939 116.172L107.859 119.272L103.449 128.852Z" fill="black"/>
<path fill-rule="evenodd" clip-rule="evenodd" d="M93.9102 126.86L97.3102 130.74L101.35 129.49L105.76 119.93L95.6802 123.03L93.9102 126.86Z" fill="white"/>
<path fill-rule="evenodd" clip-rule="evenodd" d="M91.6406 124.272L92.7306 125.512L93.5707 123.672L91.6406 124.272Z" fill="white"/>
<path fill-rule="evenodd" clip-rule="evenodd" d="M120.971 113.518L122.901 112.928L121.811 111.688L120.971 113.518Z" fill="white"/>
<path fill-rule="evenodd" clip-rule="evenodd" d="M108.781 117.281L118.861 114.171L120.631 110.341L117.231 106.461L113.191 107.711L108.781 117.281Z" fill="white"/>
<path fill-rule="evenodd" clip-rule="evenodd" d="M96.5996 121.032L106.68 117.922L111.09 108.352L101.01 111.462L96.5996 121.032Z" fill="black"/>
<path fill-rule="evenodd" clip-rule="evenodd" d="M87.0605 119.049L90.4606 122.919L94.4905 121.679L98.9005 112.109L88.8306 115.209L87.0605 119.049Z" fill="white"/>
<path fill-rule="evenodd" clip-rule="evenodd" d="M84.7891 116.457L85.879 117.697L86.7191 115.867L84.7891 116.457Z" fill="white"/>
<path fill-rule="evenodd" clip-rule="evenodd" d="M114.109 105.713L116.039 105.113L114.959 103.883L114.109 105.713Z" fill="white"/>
<path fill-rule="evenodd" clip-rule="evenodd" d="M101.93 109.458L112.01 106.358L113.77 102.528L110.37 98.6484L106.34 99.8884L101.93 109.458Z" fill="white"/>
<path fill-rule="evenodd" clip-rule="evenodd" d="M89.75 113.219L99.8301 110.109L104.24 100.539L94.16 103.649L89.75 113.219Z" fill="black"/>
<path fill-rule="evenodd" clip-rule="evenodd" d="M80.2109 111.229L83.6108 115.109L87.6409 113.869L92.0509 104.289L81.9709 107.399L80.2109 111.229Z" fill="white"/>
<path fill-rule="evenodd" clip-rule="evenodd" d="M77.9395 108.647L79.0194 109.887L79.8694 108.047L77.9395 108.647Z" fill="white"/>
<path fill-rule="evenodd" clip-rule="evenodd" d="M107.26 97.8925L109.19 97.3025L108.11 96.0625L107.26 97.8925Z" fill="white"/>
<path fill-rule="evenodd" clip-rule="evenodd" d="M95.0801 101.646L105.16 98.5359L106.92 94.7059L103.52 90.8359L99.49 92.0759L95.0801 101.646Z" fill="white"/>
<path fill-rule="evenodd" clip-rule="evenodd" d="M82.8906 105.407L92.9707 102.297L97.3806 92.7266L87.3107 95.8265L82.8906 105.407Z" fill="black"/>
<path fill-rule="evenodd" clip-rule="evenodd" d="M73.3496 103.417L76.7596 107.287L80.7897 106.047L85.1997 96.4766L75.1196 99.5865L73.3496 103.417Z" fill="white"/>
<path fill-rule="evenodd" clip-rule="evenodd" d="M71.0801 100.832L72.17 102.072L73.02 100.242L71.0801 100.832Z" fill="white"/>
<path fill-rule="evenodd" clip-rule="evenodd" d="M95.4905 81.6697L94.4005 80.4297L93.5605 82.2697L95.4905 81.6697Z" fill="white"/>
<path fill-rule="evenodd" clip-rule="evenodd" d="M100.41 90.08L102.34 89.4901L101.25 88.25L100.41 90.08Z" fill="white"/>
<path fill-rule="evenodd" clip-rule="evenodd" d="M88.2305 93.8334L98.3005 90.7335L100.071 86.9034L96.6705 83.0234L92.6405 84.2734L88.2305 93.8334Z" fill="white"/>
<path fill-rule="evenodd" clip-rule="evenodd" d="M89.2791 85.2963L76.5891 96.3962L76.0391 97.5862L86.119 94.4863L90.5291 84.9062L89.2791 85.2963Z" fill="black"/>
<path fill-rule="evenodd" clip-rule="evenodd" d="M424.74 95.8207L407.66 80.8807C407.058 80.3608 406.566 79.7263 406.211 79.0143C405.856 78.3022 405.647 77.5267 405.595 76.733C405.543 75.9392 405.649 75.143 405.908 74.3907C406.166 73.6383 406.571 72.9449 407.1 72.3507L417.32 60.6907C418.383 59.4906 419.876 58.7585 421.475 58.6537C423.074 58.5488 424.65 59.0796 425.86 60.1307L442.91 75.0707C444.113 76.1284 444.849 77.6196 444.956 79.2181C445.063 80.8166 444.532 82.3923 443.48 83.6007L433.28 95.2807C432.218 96.4808 430.725 97.2129 429.125 97.3178C427.526 97.4227 425.95 96.8918 424.74 95.8407" fill="white"/>
<path fill-rule="evenodd" clip-rule="evenodd" d="M382.47 150.277L377.6 155.827L385.6 162.827C387.209 164.238 388.193 166.229 388.336 168.365C388.478 170.5 387.768 172.605 386.36 174.217L384.25 176.617C382.834 178.225 380.84 179.208 378.702 179.35C376.564 179.492 374.457 178.783 372.84 177.377L364.84 170.377L334.99 204.377C332.508 207.195 329.01 208.916 325.263 209.164C321.515 209.411 317.822 208.165 314.99 205.697L312.99 203.917C310.178 201.443 308.46 197.956 308.213 194.219C307.965 190.482 309.208 186.799 311.67 183.977L341.53 149.977L333.53 142.977C331.92 141.564 330.936 139.571 330.794 137.434C330.651 135.297 331.362 133.191 332.77 131.577L334.91 129.277C336.327 127.67 338.323 126.689 340.461 126.549C342.598 126.408 344.705 127.119 346.32 128.527L354.32 135.527L359.18 129.977L375.41 134.977L382.47 150.277Z" fill="white"/>
<path fill-rule="evenodd" clip-rule="evenodd" d="M389.321 142.477L383.651 148.947L377.48 135.547L387.561 138.647L389.321 142.477Z" fill="white"/>
<path fill-rule="evenodd" clip-rule="evenodd" d="M391.59 139.897L390.51 141.137L389.66 139.297L391.59 139.897Z" fill="white"/>
<path fill-rule="evenodd" clip-rule="evenodd" d="M374.46 132.896L360.34 128.546L366.01 122.086L370.04 123.326L374.46 132.896Z" fill="white"/>
<path fill-rule="evenodd" clip-rule="evenodd" d="M386.641 136.657L376.561 133.547L372.141 123.977L382.231 127.087L386.641 136.657Z" fill="black"/>
<path fill-rule="evenodd" clip-rule="evenodd" d="M396.18 134.667L392.78 138.547L388.74 137.307L384.33 127.727L394.41 130.837L396.18 134.667Z" fill="white"/>
<path fill-rule="evenodd" clip-rule="evenodd" d="M398.44 132.082L397.36 133.322L396.51 131.492L398.44 132.082Z" fill="white"/>
<path fill-rule="evenodd" clip-rule="evenodd" d="M369.119 121.34L367.189 120.74L368.279 119.5L369.119 121.34Z" fill="white"/>
<path fill-rule="evenodd" clip-rule="evenodd" d="M381.311 125.091L371.231 121.981L369.461 118.151L372.861 114.281L376.901 115.521L381.311 125.091Z" fill="white"/>
<path fill-rule="evenodd" clip-rule="evenodd" d="M393.49 128.852L383.41 125.742L379 116.172L389.08 119.272L393.49 128.852Z" fill="black"/>
<path fill-rule="evenodd" clip-rule="evenodd" d="M403.03 126.862L399.63 130.742L395.59 129.492L391.18 119.922L401.26 123.032L403.03 126.862Z" fill="white"/>
<path fill-rule="evenodd" clip-rule="evenodd" d="M405.301 124.272L404.211 125.512L403.371 123.672L405.301 124.272Z" fill="white"/>
<path fill-rule="evenodd" clip-rule="evenodd" d="M375.979 113.518L374.039 112.928L375.129 111.688L375.979 113.518Z" fill="white"/>
<path fill-rule="evenodd" clip-rule="evenodd" d="M388.16 117.281L378.08 114.171L376.32 110.341L379.71 106.461L383.75 107.711L388.16 117.281Z" fill="white"/>
<path fill-rule="evenodd" clip-rule="evenodd" d="M400.34 121.032L390.26 117.922L385.85 108.352L395.93 111.462L400.34 121.032Z" fill="black"/>
<path fill-rule="evenodd" clip-rule="evenodd" d="M409.879 119.049L406.479 122.919L402.449 121.679L398.039 112.109L408.109 115.209L409.879 119.049Z" fill="white"/>
<path fill-rule="evenodd" clip-rule="evenodd" d="M412.151 116.459L411.061 117.699L410.221 115.859L412.151 116.459Z" fill="white"/>
<path fill-rule="evenodd" clip-rule="evenodd" d="M382.83 105.713L380.9 105.113L381.98 103.883L382.83 105.713Z" fill="white"/>
<path fill-rule="evenodd" clip-rule="evenodd" d="M395.01 109.458L384.93 106.358L383.17 102.528L386.57 98.6484L390.6 99.8884L395.01 109.458Z" fill="white"/>
<path fill-rule="evenodd" clip-rule="evenodd" d="M407.189 113.219L397.119 110.109L392.699 100.539L402.789 103.649L407.189 113.219Z" fill="black"/>
<path fill-rule="evenodd" clip-rule="evenodd" d="M416.741 111.229L413.331 115.109L409.301 113.869L404.891 104.289L414.971 107.399L416.741 111.229Z" fill="white"/>
<path fill-rule="evenodd" clip-rule="evenodd" d="M419 108.647L417.92 109.887L417.07 108.047L419 108.647Z" fill="white"/>
<path fill-rule="evenodd" clip-rule="evenodd" d="M389.68 97.8925L387.75 97.3025L388.84 96.0625L389.68 97.8925Z" fill="white"/>
<path fill-rule="evenodd" clip-rule="evenodd" d="M401.859 101.646L391.79 98.5359L390.02 94.7059L393.42 90.8359L397.46 92.0759L401.859 101.646Z" fill="white"/>
<path fill-rule="evenodd" clip-rule="evenodd" d="M414.051 105.407L403.971 102.297L399.561 92.7266L409.641 95.8265L414.051 105.407Z" fill="black"/>
<path fill-rule="evenodd" clip-rule="evenodd" d="M423.59 103.417L420.19 107.287L416.15 106.047L411.74 96.4766L421.82 99.5865L423.59 103.417Z" fill="white"/>
<path fill-rule="evenodd" clip-rule="evenodd" d="M425.86 100.832L424.77 102.072L423.92 100.242L425.86 100.832Z" fill="white"/>
<path fill-rule="evenodd" clip-rule="evenodd" d="M401.461 81.6697L402.541 80.4297L403.391 82.2697L401.461 81.6697Z" fill="white"/>
<path fill-rule="evenodd" clip-rule="evenodd" d="M396.53 90.08L394.6 89.4901L395.69 88.25L396.53 90.08Z" fill="white"/>
<path fill-rule="evenodd" clip-rule="evenodd" d="M408.721 93.8334L398.641 90.7335L396.871 86.9034L400.271 83.0234L404.311 84.2734L408.721 93.8334Z" fill="white"/>
<path fill-rule="evenodd" clip-rule="evenodd" d="M407.66 85.2963L420.35 96.3962L420.9 97.5862L410.82 94.4863L406.41 84.9062L407.66 85.2963Z" fill="black"/>
<path d="M63.1 843.206C59.9 843.206 56.65 843.106 53.35 842.906C50.05 842.806 46.8 842.556 43.6 842.156C36.5 841.556 32.95 839.256 32.95 835.256C32.95 833.256 33.75 830.856 35.35 828.056C39.15 821.156 43.05 814.306 47.05 807.506C51.05 800.606 55 793.706 58.9 786.806C60.1 784.606 61.65 781.856 63.55 778.556C65.45 775.256 67.35 772.106 69.25 769.106C70.15 767.706 71.45 766.306 73.15 764.906C74.85 763.406 76.6 762.456 78.4 762.056C76.3 762.156 73.6 762.306 70.3 762.506C67.1 762.706 63.8 763.106 60.4 763.706C57.1 764.206 54.1 765.056 51.4 766.256C48.8 767.356 46.95 768.906 45.85 770.906C45.45 771.806 45.1 772.706 44.8 773.606C44.5 774.506 44.35 775.406 44.35 776.306C44.35 778.606 45.15 780.256 46.75 781.256C46.85 781.256 46.9 781.356 46.9 781.556C46.9 781.756 46.7 781.956 46.3 782.156C46 782.356 45.7 782.406 45.4 782.306C44.5 781.806 43.4 780.606 42.1 778.706C40.8 776.706 40 775.056 39.7 773.756C39.4 772.556 39.25 771.456 39.25 770.456C39.25 767.856 40.1 765.856 41.8 764.456C43.5 762.956 45.65 761.906 48.25 761.306C50.85 760.606 53.5 760.206 56.2 760.106C58.9 759.906 61.3 759.806 63.4 759.806C68.7 759.806 74 759.756 79.3 759.656C84.6 759.456 89.85 759.356 95.05 759.356C97.35 759.356 99.6 759.356 101.8 759.356C104.1 759.356 106.35 759.456 108.55 759.656C111.05 759.756 112.75 760.256 113.65 761.156C114.65 762.056 115.15 763.156 115.15 764.456C115.15 766.056 114.6 767.906 113.5 770.006C112.5 772.006 111.55 773.856 110.65 775.556C110.25 776.356 109.6 776.956 108.7 777.356C107.8 777.656 107.45 777.356 107.65 776.456C108.15 774.456 108.4 772.456 108.4 770.456C108.4 768.656 108.05 767.056 107.35 765.656C106.75 764.156 105.55 763.106 103.75 762.506C102.05 762.006 99.4 761.756 95.8 761.756C94.5 761.756 93.15 761.806 91.75 761.906C90.45 761.906 89.1 761.956 87.7 762.056C83.7 762.356 81 763.406 79.6 765.206C76.3 769.806 73.1 774.806 70 780.206C67 785.506 64.1 790.556 61.3 795.356C61.2 795.556 61.15 795.806 61.15 796.106C61.15 796.706 61.6 797.006 62.5 797.006C66 797.006 69.75 797.056 73.75 797.156C77.85 797.256 81.45 797.256 84.55 797.156C85.25 797.056 86.3 796.956 87.7 796.856C89.2 796.756 90.7 796.556 92.2 796.256C93.8 795.956 95 795.606 95.8 795.206C96.3 794.906 96.6 794.756 96.7 794.756C97.3 794.756 97.3 795.356 96.7 796.556C96.2 797.656 95.3 798.806 94 800.006C92.8 801.106 91.4 801.656 89.8 801.656C84.9 801.656 80.75 801.556 77.35 801.356C74.05 801.156 70.35 801.056 66.25 801.056C65.25 801.056 64.2 801.056 63.1 801.056C62 801.056 60.8 801.106 59.5 801.206C58.5 801.306 57.8 801.706 57.4 802.406C56.4 804.206 55.5 805.856 54.7 807.356C54 808.856 53.1 810.606 52 812.606C51.2 814.106 50.2 816.056 49 818.456C47.9 820.756 46.9 823.156 46 825.656C45.1 828.056 44.65 830.156 44.65 831.956C44.65 835.056 46.1 837.206 49 838.406C51.9 839.506 55.45 840.106 59.65 840.206C65.45 840.206 71.15 839.656 76.75 838.556C82.45 837.356 87.75 835.406 92.65 832.706C97.65 829.906 102 826.156 105.7 821.456C105.9 821.256 106.05 821.156 106.15 821.156C106.45 821.156 106.65 821.456 106.75 822.056C106.85 822.556 106.8 822.956 106.6 823.256C103.5 827.056 100.5 830.756 97.6 834.356C94.7 837.856 91.8 840.056 88.9 840.956C86.8 841.556 83.4 842.056 78.7 842.456C74 842.956 68.8 843.206 63.1 843.206ZM125.131 841.856C124.131 841.856 123.281 841.656 122.581 841.256C121.881 840.856 121.531 840.106 121.531 839.006C121.531 837.606 121.881 836.006 122.581 834.206C123.281 832.406 124.081 830.656 124.981 828.956C125.881 827.156 126.681 825.706 127.381 824.606C123.881 828.306 120.231 831.806 116.431 835.106C114.531 836.706 112.431 838.206 110.131 839.606C107.831 841.006 105.381 841.706 102.781 841.706C101.781 841.706 101.081 841.406 100.681 840.806C100.281 840.106 100.081 839.306 100.081 838.406C100.081 837.906 100.131 837.556 100.231 837.356C100.731 833.456 101.981 829.406 103.981 825.206C105.981 821.006 108.431 817.056 111.331 813.356C114.231 809.656 117.181 806.656 120.181 804.356C122.481 802.656 124.681 801.606 126.781 801.206C128.881 800.706 131.181 800.456 133.681 800.456H138.631C140.231 797.756 141.881 794.756 143.581 791.456C145.381 788.056 147.131 784.706 148.831 781.406C150.631 778.106 152.281 775.206 153.781 772.706C157.881 765.706 162.381 760.106 167.281 755.906C172.281 751.706 177.831 749.606 183.931 749.606C185.231 749.606 186.431 750.006 187.531 750.806C188.631 751.506 189.131 752.606 189.031 754.106L188.731 759.506C188.731 759.606 188.631 759.756 188.431 759.956C188.231 760.056 188.081 760.106 187.981 760.106C187.881 760.106 187.731 760.006 187.531 759.806C187.231 758.006 186.331 756.656 184.831 755.756C183.331 754.756 181.481 754.256 179.281 754.256C178.581 754.256 177.781 754.306 176.881 754.406C176.081 754.506 175.281 754.706 174.481 755.006C171.681 756.006 169.031 758.056 166.531 761.156C164.031 764.156 161.331 768.156 158.431 773.156C157.431 775.056 156.131 777.556 154.531 780.656C152.931 783.656 151.231 786.906 149.431 790.406C147.731 793.906 146.081 797.306 144.481 800.606C142.981 803.906 141.681 806.706 140.581 809.006C140.081 810.206 139.231 812.056 138.031 814.556C136.831 816.956 135.531 819.606 134.131 822.506C132.831 825.306 131.681 827.906 130.681 830.306C129.781 832.706 129.331 834.406 129.331 835.406C129.331 836.806 129.931 837.506 131.131 837.506C132.331 837.506 133.931 836.806 135.931 835.406C137.931 833.906 139.981 832.106 142.081 830.006C144.281 827.806 146.231 825.706 147.931 823.706C149.731 821.706 150.981 820.206 151.681 819.206C151.981 819.506 152.131 819.856 152.131 820.256C152.131 820.956 151.831 821.656 151.231 822.356C150.731 823.056 150.281 823.656 149.881 824.156C148.081 826.556 145.831 829.156 143.131 831.956C140.531 834.656 137.681 837.006 134.581 839.006C131.481 840.906 128.331 841.856 125.131 841.856ZM108.931 836.606C110.131 836.606 111.781 835.756 113.881 834.056C116.081 832.256 118.431 830.056 120.931 827.456C123.431 824.756 125.781 821.956 127.981 819.056C130.181 816.056 131.981 813.356 133.381 810.956C134.881 808.456 135.631 806.556 135.631 805.256C135.631 804.156 135.281 803.406 134.581 803.006C133.981 802.606 133.181 802.406 132.181 802.406C130.581 802.406 128.831 803.006 126.931 804.206C125.131 805.306 123.681 806.406 122.581 807.506C121.381 808.606 119.931 810.356 118.231 812.756C116.631 815.056 115.031 817.606 113.431 820.406C111.831 823.206 110.481 825.906 109.381 828.506C108.281 831.106 107.731 833.206 107.731 834.806C107.731 836.006 108.131 836.606 108.931 836.606ZM157.223 841.856C156.223 841.856 155.373 841.656 154.673 841.256C153.973 840.856 153.623 840.106 153.623 839.006C153.623 837.606 153.973 835.956 154.673 834.056C155.473 832.156 156.323 830.256 157.223 828.356C158.123 826.456 158.873 824.906 159.473 823.706C160.673 821.406 161.823 819.106 162.923 816.806C164.023 814.506 164.973 812.556 165.773 810.956C166.573 809.456 166.973 808.456 166.973 807.956C166.973 807.156 166.373 807.156 165.173 807.956C164.073 808.756 163.023 809.556 162.023 810.356C159.823 812.456 157.523 814.956 155.123 817.856C152.723 820.656 150.873 822.906 149.573 824.606C149.273 825.006 149.023 825.206 148.823 825.206C148.623 825.206 148.523 824.956 148.523 824.456C148.523 823.656 148.773 822.906 149.273 822.206C150.673 820.206 152.323 818.006 154.223 815.606C156.123 813.206 158.073 810.906 160.073 808.706C161.973 806.706 163.923 804.756 165.923 802.856C167.923 800.956 170.473 800.006 173.573 800.006C175.673 800.006 176.723 800.806 176.723 802.406C176.723 803.806 176.123 805.406 174.923 807.206C174.223 808.306 173.123 810.156 171.623 812.756C170.123 815.356 168.573 818.206 166.973 821.306C165.473 824.306 164.173 827.106 163.073 829.706C161.973 832.306 161.423 834.206 161.423 835.406C161.423 836.806 162.123 837.506 163.523 837.506C164.623 837.506 165.973 836.956 167.573 835.856C169.173 834.656 170.823 833.256 172.523 831.656C175.623 828.656 178.423 825.406 180.923 821.906C183.523 818.306 185.723 814.856 187.523 811.556C189.423 808.256 190.923 805.556 192.023 803.456C192.223 803.056 192.423 802.606 192.623 802.106C192.923 801.506 193.373 801.156 193.973 801.056C194.573 800.956 195.873 800.906 197.873 800.906C199.873 800.906 201.723 800.506 203.423 799.706H203.723C204.023 799.706 204.173 799.856 204.173 800.156C204.173 800.956 203.523 801.556 202.223 801.956C201.023 802.356 199.623 803.556 198.023 805.556C196.523 807.556 195.023 810.006 193.523 812.906C192.023 815.706 190.673 818.606 189.473 821.606C188.273 824.606 187.373 827.356 186.773 829.856C186.173 832.356 186.023 834.206 186.323 835.406C186.723 836.806 187.423 837.506 188.423 837.506C189.723 837.506 191.523 836.706 193.823 835.106C196.223 833.506 198.673 831.606 201.173 829.406C203.673 827.106 205.723 825.006 207.323 823.106C208.023 822.306 208.673 821.506 209.273 820.706C209.873 819.906 210.273 819.406 210.473 819.206C210.573 819.306 210.673 819.506 210.773 819.806C210.873 820.006 210.923 820.206 210.923 820.406C210.823 821.106 210.573 821.806 210.173 822.506C209.773 823.106 209.323 823.656 208.823 824.156C206.923 826.656 204.623 829.306 201.923 832.106C199.323 834.806 196.473 837.106 193.373 839.006C190.373 840.906 187.273 841.856 184.073 841.856C183.073 841.856 181.923 841.606 180.623 841.106C179.423 840.606 178.823 839.506 178.823 837.806C178.823 836.506 179.173 834.756 179.873 832.556C180.573 830.256 181.323 828.006 182.123 825.806C183.023 823.506 183.773 821.806 184.373 820.706C183.073 822.606 181.473 824.756 179.573 827.156C177.773 829.456 175.923 831.506 174.023 833.306C171.523 835.706 168.823 837.756 165.923 839.456C163.123 841.056 160.223 841.856 157.223 841.856ZM314.501 845.906C314.201 845.906 313.901 845.806 313.601 845.606C313.401 845.406 313.351 845.256 313.451 845.156C314.151 844.256 314.701 843.256 315.101 842.156C315.601 841.156 316.051 840.106 316.451 839.006C315.151 832.006 313.401 824.706 311.201 817.106C309.101 809.506 306.801 801.906 304.301 794.306C301.901 786.606 299.601 779.306 297.401 772.406C296.701 772.906 295.951 774.106 295.151 776.006C294.451 777.906 293.951 779.306 293.651 780.206C292.351 783.606 290.801 787.606 289.001 792.206C287.301 796.706 285.351 801.406 283.151 806.306C281.051 811.106 278.651 815.856 275.951 820.556C273.351 825.156 270.451 829.356 267.251 833.156C265.751 835.056 263.701 836.756 261.101 838.256C258.501 839.656 255.801 840.756 253.001 841.556C250.201 842.456 247.651 842.906 245.351 842.906C242.251 842.906 239.251 842.056 236.351 840.356C233.551 838.556 231.451 835.856 230.051 832.256C229.651 830.956 229.351 829.606 229.151 828.206C228.951 826.706 228.851 825.256 228.851 823.856C228.851 822.456 229.101 821.756 229.601 821.756C230.101 821.756 230.351 822.156 230.351 822.956C230.351 827.656 231.651 831.556 234.251 834.656C236.851 837.756 239.951 839.306 243.551 839.306C247.051 839.306 250.551 838.456 254.051 836.756C257.551 835.056 260.701 832.706 263.501 829.706C268.001 824.706 271.801 819.406 274.901 813.806C278.001 808.206 280.751 802.406 283.151 796.406C285.551 790.406 288.001 784.406 290.501 778.406C292.001 774.606 294.101 771.306 296.801 768.506C299.501 765.706 302.651 763.956 306.251 763.256H298.001C294.501 763.256 290.801 763.406 286.901 763.706C283.001 764.006 279.451 764.656 276.251 765.656C273.051 766.656 270.751 768.156 269.351 770.156C268.551 771.356 268.151 772.806 268.151 774.506C268.151 776.306 268.601 778.006 269.501 779.606C270.401 781.206 271.551 782.356 272.951 783.056C273.151 783.256 273.251 783.356 273.251 783.356C273.251 783.656 273.001 783.956 272.501 784.256C272.101 784.456 271.651 784.506 271.151 784.406C270.351 783.906 269.351 783.106 268.151 782.006C266.951 780.806 265.851 779.556 264.851 778.256C263.951 776.956 263.351 775.856 263.051 774.956C262.651 773.756 262.451 772.556 262.451 771.356C262.451 768.956 263.301 767.006 265.001 765.506C266.801 764.006 269.101 762.856 271.901 762.056C274.701 761.256 277.701 760.706 280.901 760.406C284.201 760.006 287.351 759.806 290.351 759.806C293.351 759.706 295.951 759.656 298.151 759.656H316.301C316.801 759.556 316.801 759.906 316.301 760.706C315.901 761.506 315.351 762.306 314.651 763.106C314.051 763.806 313.551 764.156 313.151 764.156C312.151 764.056 310.601 764.256 308.501 764.756C306.501 765.156 305.101 765.656 304.301 766.256C304.601 770.056 305.301 774.506 306.401 779.606C307.601 784.706 309.001 790.106 310.601 795.806C312.201 801.406 313.951 807.056 315.851 812.756C317.851 818.356 319.801 823.606 321.701 828.506C323.301 824.706 325.101 820.056 327.101 814.556C329.101 809.056 331.201 803.206 333.401 797.006C335.701 790.806 338.051 784.806 340.451 779.006C342.951 773.106 345.401 767.856 347.801 763.256C350.301 758.656 352.751 755.256 355.151 753.056C356.351 751.956 357.801 751.106 359.501 750.506C361.201 749.806 362.801 749.456 364.301 749.456C365.701 749.456 366.901 749.806 367.901 750.506C368.901 751.106 369.351 752.106 369.251 753.506L369.101 758.906C369.101 759.006 368.851 759.106 368.351 759.206C367.851 759.306 367.651 759.306 367.751 759.206C367.851 757.906 367.351 757.006 366.251 756.506C365.151 755.906 364.251 755.606 363.551 755.606C361.451 755.506 359.201 756.806 356.801 759.506C354.501 762.206 352.101 765.756 349.601 770.156C347.101 774.556 344.651 779.406 342.251 784.706C339.851 789.906 337.551 795.156 335.351 800.456C333.251 805.656 331.351 810.456 329.651 814.856C327.951 819.256 326.551 822.706 325.451 825.206C324.451 827.306 323.951 829.356 323.951 831.356C323.951 831.656 323.951 831.956 323.951 832.256C323.951 832.556 324.001 832.856 324.101 833.156C324.101 833.556 324.151 834.006 324.251 834.506C324.451 835.006 324.601 835.506 324.701 836.006C324.701 836.106 324.701 836.206 324.701 836.306C324.801 836.406 324.851 836.556 324.851 836.756C324.851 837.556 324.451 838.256 323.651 838.856C322.651 839.556 321.551 840.156 320.351 840.656C319.651 840.956 318.651 841.706 317.351 842.906C316.151 844.206 315.401 845.106 315.101 845.606C314.901 845.806 314.701 845.906 314.501 845.906ZM372.357 784.106C370.957 784.106 369.957 783.656 369.357 782.756C368.957 782.256 368.757 781.606 368.757 780.806C368.757 779.206 369.507 777.906 371.007 776.906C372.107 776.306 373.107 776.006 374.007 776.006C375.507 776.006 376.557 776.456 377.157 777.356C377.557 777.856 377.757 778.506 377.757 779.306C377.757 780.906 376.957 782.206 375.357 783.206C374.457 783.806 373.457 784.106 372.357 784.106ZM346.257 841.856C345.257 841.856 344.407 841.656 343.707 841.256C343.107 840.856 342.807 840.106 342.807 839.006C342.807 837.606 343.157 835.956 343.857 834.056C344.657 832.156 345.507 830.256 346.407 828.356C347.407 826.456 348.157 824.906 348.657 823.706C349.357 822.306 350.207 820.506 351.207 818.306C352.307 816.006 353.307 813.856 354.207 811.856C355.207 809.756 355.907 808.306 356.307 807.506C354.907 809.006 353.207 810.906 351.207 813.206C349.307 815.406 347.507 817.556 345.807 819.656C344.107 821.756 342.807 823.406 341.907 824.606C341.607 825.006 341.357 825.206 341.157 825.206C340.957 825.206 340.857 824.956 340.857 824.456C340.857 823.656 341.107 822.906 341.607 822.206C343.507 819.806 345.607 817.106 347.907 814.106C350.307 811.106 352.457 808.356 354.357 805.856C356.257 803.256 357.457 801.556 357.957 800.756C359.057 800.556 360.657 800.256 362.757 799.856C364.957 799.456 366.457 798.906 367.257 798.206C367.557 797.906 367.857 797.756 368.157 797.756C368.357 797.756 368.457 797.956 368.457 798.356C368.557 798.656 368.457 799.006 368.157 799.406C367.557 800.106 366.507 801.806 365.007 804.506C363.507 807.206 361.907 810.206 360.207 813.506C358.607 816.706 357.107 819.606 355.707 822.206C354.307 824.906 353.107 827.506 352.107 830.006C351.107 832.506 350.607 834.306 350.607 835.406C350.607 836.806 351.307 837.506 352.707 837.506C354.007 837.506 355.657 836.706 357.657 835.106C359.757 833.506 361.857 831.606 363.957 829.406C366.057 827.106 367.907 825.006 369.507 823.106C370.007 822.506 370.607 821.806 371.307 821.006C372.107 820.106 372.607 819.556 372.807 819.356C373.007 819.556 373.107 819.906 373.107 820.406C373.007 821.106 372.757 821.806 372.357 822.506C371.957 823.106 371.557 823.656 371.157 824.156C369.057 826.756 366.757 829.456 364.257 832.256C361.757 834.956 359.007 837.256 356.007 839.156C353.007 840.956 349.757 841.856 346.257 841.856ZM370.914 843.656C370.514 843.656 370.514 843.206 370.914 842.306C371.414 841.406 371.864 840.406 372.264 839.306C372.764 838.206 373.264 837.006 373.764 835.706C374.764 833.306 375.864 830.606 377.064 827.606C378.264 824.606 379.414 821.706 380.514 818.906C381.614 816.006 382.564 813.556 383.364 811.556C384.264 809.456 384.864 808.106 385.164 807.506C383.764 809.006 382.064 810.906 380.064 813.206C378.164 815.406 376.364 817.556 374.664 819.656C372.964 821.756 371.664 823.406 370.764 824.606C370.464 825.006 370.214 825.206 370.014 825.206C369.814 825.206 369.714 824.956 369.714 824.456C369.714 823.656 369.964 822.906 370.464 822.206C372.364 819.806 374.464 817.106 376.764 814.106C379.164 811.106 381.314 808.356 383.214 805.856C385.114 803.256 386.314 801.556 386.814 800.756C387.914 800.556 389.514 800.256 391.614 799.856C393.814 799.456 395.314 798.906 396.114 798.206C396.414 797.906 396.714 797.756 397.014 797.756C397.214 797.756 397.314 797.956 397.314 798.356C397.414 798.656 397.314 799.006 397.014 799.406C396.414 800.106 395.364 801.756 393.864 804.356C392.464 806.856 390.914 809.656 389.214 812.756C387.614 815.856 386.114 818.656 384.714 821.156C385.914 819.556 387.214 818.006 388.614 816.506C390.014 815.006 391.364 813.556 392.664 812.156C393.864 810.956 395.514 809.456 397.614 807.656C399.714 805.856 401.914 804.206 404.214 802.706C406.514 801.206 408.514 800.356 410.214 800.156C410.614 800.056 410.964 800.006 411.264 800.006C411.664 800.006 411.964 800.006 412.164 800.006C414.364 800.006 415.464 800.806 415.464 802.406C415.464 803.606 414.814 805.206 413.514 807.206C412.814 808.306 411.714 810.156 410.214 812.756C408.814 815.256 407.364 818.006 405.864 821.006C404.464 823.906 403.214 826.656 402.114 829.256C401.114 831.756 400.614 833.606 400.614 834.806C400.614 836.206 401.314 836.906 402.714 836.906C404.414 836.906 406.264 836.056 408.264 834.356C410.364 832.656 412.614 830.506 415.014 827.906C417.414 825.206 419.814 822.356 422.214 819.356C422.414 819.556 422.514 819.906 422.514 820.406C422.514 821.106 422.264 821.806 421.764 822.506C421.364 823.106 420.964 823.656 420.564 824.156C419.564 825.456 418.214 827.106 416.514 829.106C414.914 831.006 413.264 832.906 411.564 834.806C409.864 836.606 408.314 838.056 406.914 839.156C405.914 839.856 404.614 840.606 403.014 841.406C401.414 842.206 399.814 842.606 398.214 842.606C396.414 842.606 395.164 842.156 394.464 841.256C393.764 840.256 393.414 839.056 393.414 837.656C393.414 836.056 393.714 834.356 394.314 832.556C394.914 830.756 395.564 829.056 396.264 827.456C397.064 825.756 397.664 824.506 398.064 823.706C399.864 820.206 401.514 816.906 403.014 813.806C404.514 810.706 405.564 808.506 406.164 807.206C406.464 806.606 406.614 806.106 406.614 805.706C406.614 805.006 406.064 804.956 404.964 805.556C403.864 806.156 402.514 807.056 400.914 808.256C399.414 809.456 398.014 810.656 396.714 811.856C395.414 812.956 394.564 813.706 394.164 814.106C390.464 818.006 387.214 822.356 384.414 827.156C381.714 831.856 379.414 836.706 377.514 841.706C376.214 841.806 374.914 842.156 373.614 842.756C372.314 843.356 371.414 843.656 370.914 843.656ZM443.676 784.106C442.276 784.106 441.276 783.656 440.676 782.756C440.276 782.256 440.076 781.606 440.076 780.806C440.076 779.206 440.876 777.906 442.476 776.906C443.376 776.306 444.376 776.006 445.476 776.006C446.876 776.006 447.876 776.456 448.476 777.356C448.876 777.856 449.076 778.506 449.076 779.306C449.076 780.906 448.276 782.206 446.676 783.206C445.776 783.806 444.776 784.106 443.676 784.106ZM371.976 893.906C368.176 893.906 364.526 893.006 361.026 891.206C357.426 889.506 354.776 886.856 353.076 883.256C352.476 881.956 352.076 880.556 351.876 879.056C351.676 877.656 351.576 876.256 351.576 874.856V873.206C351.576 872.406 351.676 871.656 351.876 870.956C352.076 870.356 352.576 870.056 353.376 870.056C353.676 870.056 353.826 870.156 353.826 870.356C353.826 870.956 353.776 871.556 353.676 872.156C353.476 872.756 353.376 873.406 353.376 874.106C353.376 878.706 354.876 882.206 357.876 884.606C360.776 887.006 364.426 888.206 368.826 888.206C370.626 888.206 372.476 888.006 374.376 887.606C376.276 887.206 378.076 886.656 379.776 885.956C386.076 883.256 391.576 879.406 396.276 874.406C400.876 869.506 404.926 863.956 408.426 857.756C411.926 851.556 415.076 845.256 417.876 838.856C420.276 833.256 422.276 828.006 423.876 823.106C425.476 818.206 426.726 814.156 427.626 810.956C428.626 807.756 429.276 806.006 429.576 805.706C431.176 804.106 433.276 802.806 435.876 801.806C438.476 800.706 440.526 800.156 442.026 800.156C443.226 800.156 443.826 800.456 443.826 801.056C443.826 801.856 443.376 802.256 442.476 802.256C441.376 802.256 440.376 802.556 439.476 803.156C438.576 803.656 437.876 804.306 437.376 805.106C436.476 806.406 435.176 808.756 433.476 812.156C431.876 815.556 430.076 819.506 428.076 824.006C426.176 828.406 424.276 832.906 422.376 837.506C420.476 842.006 418.726 846.156 417.126 849.956C414.726 855.656 412.026 861.206 409.026 866.606C405.926 872.106 402.276 877.006 398.076 881.306C393.876 885.706 388.926 889.156 383.226 891.656C379.826 893.156 376.076 893.906 371.976 893.906ZM460.141 841.856C459.141 841.856 458.291 841.656 457.591 841.256C456.891 840.856 456.541 840.106 456.541 839.006C456.541 837.606 456.891 836.006 457.591 834.206C458.291 832.406 459.091 830.656 459.991 828.956C460.891 827.156 461.691 825.706 462.391 824.606C458.891 828.306 455.241 831.806 451.441 835.106C449.541 836.706 447.441 838.206 445.141 839.606C442.841 841.006 440.391 841.706 437.791 841.706C436.791 841.706 436.091 841.406 435.691 840.806C435.291 840.106 435.091 839.306 435.091 838.406C435.091 837.906 435.141 837.556 435.241 837.356C435.741 833.456 436.991 829.406 438.991 825.206C440.991 821.006 443.441 817.056 446.341 813.356C449.241 809.656 452.191 806.656 455.191 804.356C458.591 801.756 462.341 800.456 466.441 800.456H483.691C484.191 800.456 484.441 800.656 484.441 801.056C484.441 801.856 483.991 802.256 483.091 802.256C482.091 802.256 481.091 802.906 480.091 804.206C479.091 805.406 478.341 806.406 477.841 807.206C477.141 808.306 476.041 810.156 474.541 812.756C473.041 815.356 471.491 818.206 469.891 821.306C468.391 824.306 467.091 827.106 465.991 829.706C464.891 832.306 464.341 834.206 464.341 835.406C464.341 836.806 465.041 837.506 466.441 837.506C467.941 837.506 469.641 836.806 471.541 835.406C473.441 834.006 475.341 832.306 477.241 830.306C479.241 828.206 481.041 826.156 482.641 824.156C484.341 822.056 485.691 820.406 486.691 819.206C487.291 819.806 487.241 820.656 486.541 821.756C485.941 822.756 485.391 823.556 484.891 824.156C482.891 826.756 480.591 829.456 477.991 832.256C475.391 834.956 472.541 837.256 469.441 839.156C466.441 840.956 463.341 841.856 460.141 841.856ZM443.941 836.606C445.141 836.606 446.791 835.756 448.891 834.056C451.091 832.256 453.441 830.056 455.941 827.456C458.441 824.756 460.791 821.956 462.991 819.056C465.191 816.056 466.991 813.356 468.391 810.956C469.891 808.456 470.641 806.556 470.641 805.256C470.641 804.156 470.291 803.406 469.591 803.006C468.991 802.606 468.191 802.406 467.191 802.406C465.591 802.406 463.841 803.006 461.941 804.206C460.141 805.306 458.691 806.406 457.591 807.506C456.391 808.606 454.941 810.356 453.241 812.756C451.641 815.056 450.041 817.606 448.441 820.406C446.841 823.206 445.491 825.906 444.391 828.506C443.291 831.106 442.741 833.206 442.741 834.806C442.741 836.006 443.141 836.606 443.941 836.606Z" fill="white"/>
<path fill-rule="evenodd" clip-rule="evenodd" d="M164.13 176.283C164.13 176.283 127.22 190.423 115.2 197.283C103.18 204.143 91.6003 216.573 95.4603 238.003C99.3203 259.433 85.5903 305.723 85.5903 305.723C85.5903 305.723 82.3702 322.663 86.2302 325.873C90.0902 329.083 113.7 305.723 113.7 305.723C113.7 305.723 139.7 401.103 146.09 407.963C152.48 414.823 104.46 392.963 104.46 392.963C104.46 392.963 50.3802 368.323 32.7902 389.963C15.2002 411.603 -4.7698 423.823 1.0202 442.033C6.8102 460.243 42.0202 523.903 55.7402 525.623C69.4602 527.343 87.2802 531.403 91.3602 533.973C95.4402 536.543 117.97 541.263 122.9 553.693C127.83 566.123 141.14 561.623 141.14 561.623C141.14 561.623 156.37 568.693 156.37 575.553V583.483L187.7 598.693L179.11 620.563L145.2 683.993L145.62 692.603C213.281 708.336 283.65 708.336 351.31 692.603L351.74 683.993L317.83 620.563L309.24 598.693L340.57 583.483V575.553C340.57 568.693 355.8 561.623 355.8 561.623C355.8 561.623 369.1 566.123 374.03 553.693C378.96 541.263 401.5 536.543 405.58 533.973C409.66 531.403 427.47 527.333 441.2 525.623C454.93 523.913 490.12 460.253 495.92 442.033C501.72 423.813 481.75 411.603 464.15 389.963C446.55 368.323 392.48 392.963 392.48 392.963C392.48 392.963 344.41 414.823 350.85 407.963C357.29 401.103 383.24 305.723 383.24 305.723C383.24 305.723 406.85 329.093 410.71 325.873C412.44 324.433 412.71 320.223 412.56 316.033C412.372 312.574 411.968 309.131 411.35 305.723C411.35 305.723 397.61 259.433 401.48 238.003C405.35 216.573 393.75 204.143 381.74 197.283C369.73 190.423 332.81 176.283 332.81 176.283L310.25 158.613L248.47 152.133L186.69 158.613L164.13 176.283Z" fill="white"/>
<path fill-rule="evenodd" clip-rule="evenodd" d="M248.47 242.961C265.47 242.371 303.57 237.961 319.65 211.041C340.65 175.871 353.31 167.231 350.35 162.801C347.39 158.371 329.05 149.351 325.2 157.481C321.35 165.611 309.74 174.691 305.01 178.091C300.28 181.491 297.39 181.711 297.39 181.711C305.83 176.821 325.81 152.411 321.1 146.131C313.19 135.611 311.38 151.341 305.44 151.641C305.44 151.641 307.33 144.701 307.78 143.411C308.23 142.121 311.58 136.201 311.58 130.891C311.58 125.581 316.46 50.8108 311.73 40.1708C307.45 30.5708 291.73 5.10083 266.55 0.650827H266.46C263.677 0.161939 260.854 -0.052439 258.03 0.0108124C254.38 0.0708124 251.22 0.140815 248.47 0.200815C233.96 0.500815 231.01 0.610827 230.47 0.650827H230.38C205.19 5.10083 189.48 30.5708 185.2 40.1708C180.47 50.8108 185.35 125.571 185.35 130.891C185.35 136.211 188.71 142.111 189.15 143.411C189.59 144.711 191.49 151.641 191.49 151.641C185.56 151.341 183.74 135.641 175.83 146.131C171.12 152.411 191.1 176.821 199.54 181.711C199.54 181.711 196.65 181.491 191.92 178.091C187.19 174.691 175.58 165.611 171.73 157.481C167.88 149.351 149.54 158.371 146.58 162.801C143.62 167.231 156.27 175.871 177.28 211.041C193.36 237.971 231.49 242.371 248.46 242.961" fill="white"/>
<path fill-rule="evenodd" clip-rule="evenodd" d="M201.119 75.1875C201.119 75.1875 199.939 93.8075 198.899 96.0175C197.859 98.2275 209.209 106.297 211.029 110.497C212.849 114.697 234.529 96.6675 245.539 95.4975C247.487 95.7075 249.452 95.7075 251.399 95.4975C262.399 96.6675 284.079 114.697 285.909 110.497C287.739 106.297 299.069 98.2375 298.039 96.0175C297.009 93.7975 295.819 75.1875 295.819 75.1875C277.179 82.8375 256.819 86.9075 248.469 87.1875C240.169 86.9575 219.759 82.8875 201.119 75.1875Z" fill="black"/>
<path fill-rule="evenodd" clip-rule="evenodd" d="M72.2008 95.8216L89.2807 80.8816C90.4839 79.8238 91.2194 78.3327 91.3262 76.7342C91.4331 75.1357 90.9025 73.56 89.8507 72.3516L79.6307 60.6916C78.5666 59.4908 77.0718 58.7585 75.4709 58.6537C73.87 58.5488 72.2923 59.0799 71.0808 60.1316L54.0007 75.0716C52.7965 76.1292 52.0614 77.6215 51.9564 79.2207C51.8514 80.82 52.3852 82.3956 53.4407 83.6016L63.6607 95.2816C64.723 96.4817 66.2162 97.2138 67.8155 97.3186C69.4148 97.4235 70.9908 96.8927 72.2008 95.8416" fill="white"/>
<path fill-rule="evenodd" clip-rule="evenodd" d="M114.469 150.283L119.339 155.833L111.339 162.833C109.732 164.245 108.75 166.236 108.608 168.371C108.465 170.506 109.174 172.61 110.579 174.223L112.689 176.623C114.105 178.231 116.1 179.214 118.238 179.356C120.375 179.499 122.483 178.789 124.099 177.383L132.099 170.383L161.949 204.383C164.432 207.201 167.929 208.923 171.677 209.17C175.425 209.417 179.118 208.171 181.949 205.703L183.949 203.923C186.762 201.45 188.48 197.963 188.727 194.226C188.974 190.488 187.731 186.806 185.269 183.983L155.409 149.983L163.409 142.983C165.019 141.57 166.003 139.577 166.146 137.44C166.288 135.303 165.577 133.197 164.169 131.583L162.059 129.183C160.642 127.576 158.647 126.596 156.509 126.455C154.371 126.314 152.265 127.026 150.649 128.433L142.649 135.433L137.789 129.883L121.569 134.883L114.469 150.283Z" fill="white"/>
<path fill-rule="evenodd" clip-rule="evenodd" d="M107.621 142.477L113.291 148.947L119.471 135.547L109.381 138.647L107.621 142.477Z" fill="white"/>
<path fill-rule="evenodd" clip-rule="evenodd" d="M105.35 139.897L106.44 141.137L107.28 139.297L105.35 139.897Z" fill="white"/>
<path fill-rule="evenodd" clip-rule="evenodd" d="M122.49 132.896L136.6 128.546L130.93 122.086L126.9 123.326L122.49 132.896Z" fill="white"/>
<path fill-rule="evenodd" clip-rule="evenodd" d="M110.311 136.657L120.38 133.547L124.801 123.977L114.711 127.087L110.311 136.657Z" fill="black"/>
<path fill-rule="evenodd" clip-rule="evenodd" d="M100.77 134.667L104.17 138.547L108.2 137.307L112.609 127.727L102.53 130.837L100.77 134.667Z" fill="white"/>
<path fill-rule="evenodd" clip-rule="evenodd" d="M98.5 132.082L99.5801 133.322L100.43 131.492L98.5 132.082Z" fill="white"/>
<path fill-rule="evenodd" clip-rule="evenodd" d="M127.82 121.34L129.75 120.74L128.66 119.5L127.82 121.34Z" fill="white"/>
<path fill-rule="evenodd" clip-rule="evenodd" d="M115.631 125.091L125.721 121.981L127.481 118.151L124.081 114.281L120.051 115.521L115.631 125.091Z" fill="white"/>
<path fill-rule="evenodd" clip-rule="evenodd" d="M103.449 128.852L113.529 125.742L117.939 116.172L107.859 119.272L103.449 128.852Z" fill="black"/>
<path fill-rule="evenodd" clip-rule="evenodd" d="M93.9102 126.86L97.3102 130.74L101.35 129.49L105.76 119.93L95.6802 123.03L93.9102 126.86Z" fill="white"/>
<path fill-rule="evenodd" clip-rule="evenodd" d="M91.6406 124.272L92.7306 125.512L93.5707 123.672L91.6406 124.272Z" fill="white"/>
<path fill-rule="evenodd" clip-rule="evenodd" d="M120.971 113.518L122.901 112.928L121.811 111.688L120.971 113.518Z" fill="white"/>
<path fill-rule="evenodd" clip-rule="evenodd" d="M108.781 117.281L118.861 114.171L120.631 110.341L117.231 106.461L113.191 107.711L108.781 117.281Z" fill="white"/>
<path fill-rule="evenodd" clip-rule="evenodd" d="M96.5996 121.032L106.68 117.922L111.09 108.352L101.01 111.462L96.5996 121.032Z" fill="black"/>
<path fill-rule="evenodd" clip-rule="evenodd" d="M87.0605 119.049L90.4606 122.919L94.4905 121.679L98.9005 112.109L88.8306 115.209L87.0605 119.049Z" fill="white"/>
<path fill-rule="evenodd" clip-rule="evenodd" d="M84.7891 116.457L85.879 117.697L86.7191 115.867L84.7891 116.457Z" fill="white"/>
<path fill-rule="evenodd" clip-rule="evenodd" d="M114.109 105.713L116.039 105.113L114.959 103.883L114.109 105.713Z" fill="white"/>
<path fill-rule="evenodd" clip-rule="evenodd" d="M101.93 109.458L112.01 106.358L113.77 102.528L110.37 98.6484L106.34 99.8884L101.93 109.458Z" fill="white"/>
<path fill-rule="evenodd" clip-rule="evenodd" d="M89.75 113.219L99.8301 110.109L104.24 100.539L94.16 103.649L89.75 113.219Z" fill="black"/>
<path fill-rule="evenodd" clip-rule="evenodd" d="M80.2109 111.229L83.6108 115.109L87.6409 113.869L92.0509 104.289L81.9709 107.399L80.2109 111.229Z" fill="white"/>
<path fill-rule="evenodd" clip-rule="evenodd" d="M77.9395 108.647L79.0194 109.887L79.8694 108.047L77.9395 108.647Z" fill="white"/>
<path fill-rule="evenodd" clip-rule="evenodd" d="M107.26 97.8925L109.19 97.3025L108.11 96.0625L107.26 97.8925Z" fill="white"/>
<path fill-rule="evenodd" clip-rule="evenodd" d="M95.0801 101.646L105.16 98.5359L106.92 94.7059L103.52 90.8359L99.49 92.0759L95.0801 101.646Z" fill="white"/>
<path fill-rule="evenodd" clip-rule="evenodd" d="M82.8906 105.407L92.9707 102.297L97.3806 92.7266L87.3107 95.8265L82.8906 105.407Z" fill="black"/>
<path fill-rule="evenodd" clip-rule="evenodd" d="M73.3496 103.417L76.7596 107.287L80.7897 106.047L85.1997 96.4766L75.1196 99.5865L73.3496 103.417Z" fill="white"/>
<path fill-rule="evenodd" clip-rule="evenodd" d="M71.0801 100.832L72.17 102.072L73.02 100.242L71.0801 100.832Z" fill="white"/>
<path fill-rule="evenodd" clip-rule="evenodd" d="M95.4905 81.6697L94.4005 80.4297L93.5605 82.2697L95.4905 81.6697Z" fill="white"/>
<path fill-rule="evenodd" clip-rule="evenodd" d="M100.41 90.08L102.34 89.4901L101.25 88.25L100.41 90.08Z" fill="white"/>
<path fill-rule="evenodd" clip-rule="evenodd" d="M88.2305 93.8334L98.3005 90.7335L100.071 86.9034L96.6705 83.0234L92.6405 84.2734L88.2305 93.8334Z" fill="white"/>
<path fill-rule="evenodd" clip-rule="evenodd" d="M89.2791 85.2963L76.5891 96.3962L76.0391 97.5862L86.119 94.4863L90.5291 84.9062L89.2791 85.2963Z" fill="black"/>
<path fill-rule="evenodd" clip-rule="evenodd" d="M424.74 95.8207L407.66 80.8807C407.058 80.3608 406.566 79.7263 406.211 79.0143C405.856 78.3022 405.647 77.5267 405.595 76.733C405.543 75.9392 405.649 75.143 405.908 74.3907C406.166 73.6383 406.571 72.9449 407.1 72.3507L417.32 60.6907C418.383 59.4906 419.876 58.7585 421.475 58.6537C423.074 58.5488 424.65 59.0796 425.86 60.1307L442.91 75.0707C444.113 76.1284 444.849 77.6196 444.956 79.2181C445.063 80.8166 444.532 82.3923 443.48 83.6007L433.28 95.2807C432.218 96.4808 430.725 97.2129 429.125 97.3178C427.526 97.4227 425.95 96.8918 424.74 95.8407" fill="white"/>
<path fill-rule="evenodd" clip-rule="evenodd" d="M382.47 150.277L377.6 155.827L385.6 162.827C387.209 164.238 388.193 166.229 388.336 168.365C388.478 170.5 387.768 172.605 386.36 174.217L384.25 176.617C382.834 178.225 380.84 179.208 378.702 179.35C376.564 179.492 374.457 178.783 372.84 177.377L364.84 170.377L334.99 204.377C332.508 207.195 329.01 208.916 325.263 209.164C321.515 209.411 317.822 208.165 314.99 205.697L312.99 203.917C310.178 201.443 308.46 197.956 308.213 194.219C307.965 190.482 309.208 186.799 311.67 183.977L341.53 149.977L333.53 142.977C331.92 141.564 330.936 139.571 330.794 137.434C330.651 135.297 331.362 133.191 332.77 131.577L334.91 129.277C336.327 127.67 338.323 126.689 340.461 126.549C342.598 126.408 344.705 127.119 346.32 128.527L354.32 135.527L359.18 129.977L375.41 134.977L382.47 150.277Z" fill="white"/>
<path fill-rule="evenodd" clip-rule="evenodd" d="M389.321 142.477L383.651 148.947L377.48 135.547L387.561 138.647L389.321 142.477Z" fill="white"/>
<path fill-rule="evenodd" clip-rule="evenodd" d="M391.59 139.897L390.51 141.137L389.66 139.297L391.59 139.897Z" fill="white"/>
<path fill-rule="evenodd" clip-rule="evenodd" d="M374.46 132.896L360.34 128.546L366.01 122.086L370.04 123.326L374.46 132.896Z" fill="white"/>
<path fill-rule="evenodd" clip-rule="evenodd" d="M386.641 136.657L376.561 133.547L372.141 123.977L382.231 127.087L386.641 136.657Z" fill="black"/>
<path fill-rule="evenodd" clip-rule="evenodd" d="M396.18 134.667L392.78 138.547L388.74 137.307L384.33 127.727L394.41 130.837L396.18 134.667Z" fill="white"/>
<path fill-rule="evenodd" clip-rule="evenodd" d="M398.44 132.082L397.36 133.322L396.51 131.492L398.44 132.082Z" fill="white"/>
<path fill-rule="evenodd" clip-rule="evenodd" d="M369.119 121.34L367.189 120.74L368.279 119.5L369.119 121.34Z" fill="white"/>
<path fill-rule="evenodd" clip-rule="evenodd" d="M381.311 125.091L371.231 121.981L369.461 118.151L372.861 114.281L376.901 115.521L381.311 125.091Z" fill="white"/>
<path fill-rule="evenodd" clip-rule="evenodd" d="M393.49 128.852L383.41 125.742L379 116.172L389.08 119.272L393.49 128.852Z" fill="black"/>
<path fill-rule="evenodd" clip-rule="evenodd" d="M403.03 126.862L399.63 130.742L395.59 129.492L391.18 119.922L401.26 123.032L403.03 126.862Z" fill="white"/>
<path fill-rule="evenodd" clip-rule="evenodd" d="M405.301 124.272L404.211 125.512L403.371 123.672L405.301 124.272Z" fill="white"/>
<path fill-rule="evenodd" clip-rule="evenodd" d="M375.979 113.518L374.039 112.928L375.129 111.688L375.979 113.518Z" fill="white"/>
<path fill-rule="evenodd" clip-rule="evenodd" d="M388.16 117.281L378.08 114.171L376.32 110.341L379.71 106.461L383.75 107.711L388.16 117.281Z" fill="white"/>
<path fill-rule="evenodd" clip-rule="evenodd" d="M400.34 121.032L390.26 117.922L385.85 108.352L395.93 111.462L400.34 121.032Z" fill="black"/>
<path fill-rule="evenodd" clip-rule="evenodd" d="M409.879 119.049L406.479 122.919L402.449 121.679L398.039 112.109L408.109 115.209L409.879 119.049Z" fill="white"/>
<path fill-rule="evenodd" clip-rule="evenodd" d="M412.151 116.459L411.061 117.699L410.221 115.859L412.151 116.459Z" fill="white"/>
<path fill-rule="evenodd" clip-rule="evenodd" d="M382.83 105.713L380.9 105.113L381.98 103.883L382.83 105.713Z" fill="white"/>
<path fill-rule="evenodd" clip-rule="evenodd" d="M395.01 109.458L384.93 106.358L383.17 102.528L386.57 98.6484L390.6 99.8884L395.01 109.458Z" fill="white"/>
<path fill-rule="evenodd" clip-rule="evenodd" d="M407.189 113.219L397.119 110.109L392.699 100.539L402.789 103.649L407.189 113.219Z" fill="black"/>
<path fill-rule="evenodd" clip-rule="evenodd" d="M416.741 111.229L413.331 115.109L409.301 113.869L404.891 104.289L414.971 107.399L416.741 111.229Z" fill="white"/>
<path fill-rule="evenodd" clip-rule="evenodd" d="M419 108.647L417.92 109.887L417.07 108.047L419 108.647Z" fill="white"/>
<path fill-rule="evenodd" clip-rule="evenodd" d="M389.68 97.8925L387.75 97.3025L388.84 96.0625L389.68 97.8925Z" fill="white"/>
<path fill-rule="evenodd" clip-rule="evenodd" d="M401.859 101.646L391.79 98.5359L390.02 94.7059L393.42 90.8359L397.46 92.0759L401.859 101.646Z" fill="white"/>
<path fill-rule="evenodd" clip-rule="evenodd" d="M414.051 105.407L403.971 102.297L399.561 92.7266L409.641 95.8265L414.051 105.407Z" fill="black"/>
<path fill-rule="evenodd" clip-rule="evenodd" d="M423.59 103.417L420.19 107.287L416.15 106.047L411.74 96.4766L421.82 99.5865L423.59 103.417Z" fill="white"/>
<path fill-rule="evenodd" clip-rule="evenodd" d="M425.86 100.832L424.77 102.072L423.92 100.242L425.86 100.832Z" fill="white"/>
<path fill-rule="evenodd" clip-rule="evenodd" d="M401.461 81.6697L402.541 80.4297L403.391 82.2697L401.461 81.6697Z" fill="white"/>
<path fill-rule="evenodd" clip-rule="evenodd" d="M396.53 90.08L394.6 89.4901L395.69 88.25L396.53 90.08Z" fill="white"/>
<path fill-rule="evenodd" clip-rule="evenodd" d="M408.721 93.8334L398.641 90.7335L396.871 86.9034L400.271 83.0234L404.311 84.2734L408.721 93.8334Z" fill="white"/>
<path fill-rule="evenodd" clip-rule="evenodd" d="M407.66 85.2963L420.35 96.3962L420.9 97.5862L410.82 94.4863L406.41 84.9062L407.66 85.2963Z" fill="black"/>
<path d="M63.1 843.206C59.9 843.206 56.65 843.106 53.35 842.906C50.05 842.806 46.8 842.556 43.6 842.156C36.5 841.556 32.95 839.256 32.95 835.256C32.95 833.256 33.75 830.856 35.35 828.056C39.15 821.156 43.05 814.306 47.05 807.506C51.05 800.606 55 793.706 58.9 786.806C60.1 784.606 61.65 781.856 63.55 778.556C65.45 775.256 67.35 772.106 69.25 769.106C70.15 767.706 71.45 766.306 73.15 764.906C74.85 763.406 76.6 762.456 78.4 762.056C76.3 762.156 73.6 762.306 70.3 762.506C67.1 762.706 63.8 763.106 60.4 763.706C57.1 764.206 54.1 765.056 51.4 766.256C48.8 767.356 46.95 768.906 45.85 770.906C45.45 771.806 45.1 772.706 44.8 773.606C44.5 774.506 44.35 775.406 44.35 776.306C44.35 778.606 45.15 780.256 46.75 781.256C46.85 781.256 46.9 781.356 46.9 781.556C46.9 781.756 46.7 781.956 46.3 782.156C46 782.356 45.7 782.406 45.4 782.306C44.5 781.806 43.4 780.606 42.1 778.706C40.8 776.706 40 775.056 39.7 773.756C39.4 772.556 39.25 771.456 39.25 770.456C39.25 767.856 40.1 765.856 41.8 764.456C43.5 762.956 45.65 761.906 48.25 761.306C50.85 760.606 53.5 760.206 56.2 760.106C58.9 759.906 61.3 759.806 63.4 759.806C68.7 759.806 74 759.756 79.3 759.656C84.6 759.456 89.85 759.356 95.05 759.356C97.35 759.356 99.6 759.356 101.8 759.356C104.1 759.356 106.35 759.456 108.55 759.656C111.05 759.756 112.75 760.256 113.65 761.156C114.65 762.056 115.15 763.156 115.15 764.456C115.15 766.056 114.6 767.906 113.5 770.006C112.5 772.006 111.55 773.856 110.65 775.556C110.25 776.356 109.6 776.956 108.7 777.356C107.8 777.656 107.45 777.356 107.65 776.456C108.15 774.456 108.4 772.456 108.4 770.456C108.4 768.656 108.05 767.056 107.35 765.656C106.75 764.156 105.55 763.106 103.75 762.506C102.05 762.006 99.4 761.756 95.8 761.756C94.5 761.756 93.15 761.806 91.75 761.906C90.45 761.906 89.1 761.956 87.7 762.056C83.7 762.356 81 763.406 79.6 765.206C76.3 769.806 73.1 774.806 70 780.206C67 785.506 64.1 790.556 61.3 795.356C61.2 795.556 61.15 795.806 61.15 796.106C61.15 796.706 61.6 797.006 62.5 797.006C66 797.006 69.75 797.056 73.75 797.156C77.85 797.256 81.45 797.256 84.55 797.156C85.25 797.056 86.3 796.956 87.7 796.856C89.2 796.756 90.7 796.556 92.2 796.256C93.8 795.956 95 795.606 95.8 795.206C96.3 794.906 96.6 794.756 96.7 794.756C97.3 794.756 97.3 795.356 96.7 796.556C96.2 797.656 95.3 798.806 94 800.006C92.8 801.106 91.4 801.656 89.8 801.656C84.9 801.656 80.75 801.556 77.35 801.356C74.05 801.156 70.35 801.056 66.25 801.056C65.25 801.056 64.2 801.056 63.1 801.056C62 801.056 60.8 801.106 59.5 801.206C58.5 801.306 57.8 801.706 57.4 802.406C56.4 804.206 55.5 805.856 54.7 807.356C54 808.856 53.1 810.606 52 812.606C51.2 814.106 50.2 816.056 49 818.456C47.9 820.756 46.9 823.156 46 825.656C45.1 828.056 44.65 830.156 44.65 831.956C44.65 835.056 46.1 837.206 49 838.406C51.9 839.506 55.45 840.106 59.65 840.206C65.45 840.206 71.15 839.656 76.75 838.556C82.45 837.356 87.75 835.406 92.65 832.706C97.65 829.906 102 826.156 105.7 821.456C105.9 821.256 106.05 821.156 106.15 821.156C106.45 821.156 106.65 821.456 106.75 822.056C106.85 822.556 106.8 822.956 106.6 823.256C103.5 827.056 100.5 830.756 97.6 834.356C94.7 837.856 91.8 840.056 88.9 840.956C86.8 841.556 83.4 842.056 78.7 842.456C74 842.956 68.8 843.206 63.1 843.206ZM125.131 841.856C124.131 841.856 123.281 841.656 122.581 841.256C121.881 840.856 121.531 840.106 121.531 839.006C121.531 837.606 121.881 836.006 122.581 834.206C123.281 832.406 124.081 830.656 124.981 828.956C125.881 827.156 126.681 825.706 127.381 824.606C123.881 828.306 120.231 831.806 116.431 835.106C114.531 836.706 112.431 838.206 110.131 839.606C107.831 841.006 105.381 841.706 102.781 841.706C101.781 841.706 101.081 841.406 100.681 840.806C100.281 840.106 100.081 839.306 100.081 838.406C100.081 837.906 100.131 837.556 100.231 837.356C100.731 833.456 101.981 829.406 103.981 825.206C105.981 821.006 108.431 817.056 111.331 813.356C114.231 809.656 117.181 806.656 120.181 804.356C122.481 802.656 124.681 801.606 126.781 801.206C128.881 800.706 131.181 800.456 133.681 800.456H138.631C140.231 797.756 141.881 794.756 143.581 791.456C145.381 788.056 147.131 784.706 148.831 781.406C150.631 778.106 152.281 775.206 153.781 772.706C157.881 765.706 162.381 760.106 167.281 755.906C172.281 751.706 177.831 749.606 183.931 749.606C185.231 749.606 186.431 750.006 187.531 750.806C188.631 751.506 189.131 752.606 189.031 754.106L188.731 759.506C188.731 759.606 188.631 759.756 188.431 759.956C188.231 760.056 188.081 760.106 187.981 760.106C187.881 760.106 187.731 760.006 187.531 759.806C187.231 758.006 186.331 756.656 184.831 755.756C183.331 754.756 181.481 754.256 179.281 754.256C178.581 754.256 177.781 754.306 176.881 754.406C176.081 754.506 175.281 754.706 174.481 755.006C171.681 756.006 169.031 758.056 166.531 761.156C164.031 764.156 161.331 768.156 158.431 773.156C157.431 775.056 156.131 777.556 154.531 780.656C152.931 783.656 151.231 786.906 149.431 790.406C147.731 793.906 146.081 797.306 144.481 800.606C142.981 803.906 141.681 806.706 140.581 809.006C140.081 810.206 139.231 812.056 138.031 814.556C136.831 816.956 135.531 819.606 134.131 822.506C132.831 825.306 131.681 827.906 130.681 830.306C129.781 832.706 129.331 834.406 129.331 835.406C129.331 836.806 129.931 837.506 131.131 837.506C132.331 837.506 133.931 836.806 135.931 835.406C137.931 833.906 139.981 832.106 142.081 830.006C144.281 827.806 146.231 825.706 147.931 823.706C149.731 821.706 150.981 820.206 151.681 819.206C151.981 819.506 152.131 819.856 152.131 820.256C152.131 820.956 151.831 821.656 151.231 822.356C150.731 823.056 150.281 823.656 149.881 824.156C148.081 826.556 145.831 829.156 143.131 831.956C140.531 834.656 137.681 837.006 134.581 839.006C131.481 840.906 128.331 841.856 125.131 841.856ZM108.931 836.606C110.131 836.606 111.781 835.756 113.881 834.056C116.081 832.256 118.431 830.056 120.931 827.456C123.431 824.756 125.781 821.956 127.981 819.056C130.181 816.056 131.981 813.356 133.381 810.956C134.881 808.456 135.631 806.556 135.631 805.256C135.631 804.156 135.281 803.406 134.581 803.006C133.981 802.606 133.181 802.406 132.181 802.406C130.581 802.406 128.831 803.006 126.931 804.206C125.131 805.306 123.681 806.406 122.581 807.506C121.381 808.606 119.931 810.356 118.231 812.756C116.631 815.056 115.031 817.606 113.431 820.406C111.831 823.206 110.481 825.906 109.381 828.506C108.281 831.106 107.731 833.206 107.731 834.806C107.731 836.006 108.131 836.606 108.931 836.606ZM157.223 841.856C156.223 841.856 155.373 841.656 154.673 841.256C153.973 840.856 153.623 840.106 153.623 839.006C153.623 837.606 153.973 835.956 154.673 834.056C155.473 832.156 156.323 830.256 157.223 828.356C158.123 826.456 158.873 824.906 159.473 823.706C160.673 821.406 161.823 819.106 162.923 816.806C164.023 814.506 164.973 812.556 165.773 810.956C166.573 809.456 166.973 808.456 166.973 807.956C166.973 807.156 166.373 807.156 165.173 807.956C164.073 808.756 163.023 809.556 162.023 810.356C159.823 812.456 157.523 814.956 155.123 817.856C152.723 820.656 150.873 822.906 149.573 824.606C149.273 825.006 149.023 825.206 148.823 825.206C148.623 825.206 148.523 824.956 148.523 824.456C148.523 823.656 148.773 822.906 149.273 822.206C150.673 820.206 152.323 818.006 154.223 815.606C156.123 813.206 158.073 810.906 160.073 808.706C161.973 806.706 163.923 804.756 165.923 802.856C167.923 800.956 170.473 800.006 173.573 800.006C175.673 800.006 176.723 800.806 176.723 802.406C176.723 803.806 176.123 805.406 174.923 807.206C174.223 808.306 173.123 810.156 171.623 812.756C170.123 815.356 168.573 818.206 166.973 821.306C165.473 824.306 164.173 827.106 163.073 829.706C161.973 832.306 161.423 834.206 161.423 835.406C161.423 836.806 162.123 837.506 163.523 837.506C164.623 837.506 165.973 836.956 167.573 835.856C169.173 834.656 170.823 833.256 172.523 831.656C175.623 828.656 178.423 825.406 180.923 821.906C183.523 818.306 185.723 814.856 187.523 811.556C189.423 808.256 190.923 805.556 192.023 803.456C192.223 803.056 192.423 802.606 192.623 802.106C192.923 801.506 193.373 801.156 193.973 801.056C194.573 800.956 195.873 800.906 197.873 800.906C199.873 800.906 201.723 800.506 203.423 799.706H203.723C204.023 799.706 204.173 799.856 204.173 800.156C204.173 800.956 203.523 801.556 202.223 801.956C201.023 802.356 199.623 803.556 198.023 805.556C196.523 807.556 195.023 810.006 193.523 812.906C192.023 815.706 190.673 818.606 189.473 821.606C188.273 824.606 187.373 827.356 186.773 829.856C186.173 832.356 186.023 834.206 186.323 835.406C186.723 836.806 187.423 837.506 188.423 837.506C189.723 837.506 191.523 836.706 193.823 835.106C196.223 833.506 198.673 831.606 201.173 829.406C203.673 827.106 205.723 825.006 207.323 823.106C208.023 822.306 208.673 821.506 209.273 820.706C209.873 819.906 210.273 819.406 210.473 819.206C210.573 819.306 210.673 819.506 210.773 819.806C210.873 820.006 210.923 820.206 210.923 820.406C210.823 821.106 210.573 821.806 210.173 822.506C209.773 823.106 209.323 823.656 208.823 824.156C206.923 826.656 204.623 829.306 201.923 832.106C199.323 834.806 196.473 837.106 193.373 839.006C190.373 840.906 187.273 841.856 184.073 841.856C183.073 841.856 181.923 841.606 180.623 841.106C179.423 840.606 178.823 839.506 178.823 837.806C178.823 836.506 179.173 834.756 179.873 832.556C180.573 830.256 181.323 828.006 182.123 825.806C183.023 823.506 183.773 821.806 184.373 820.706C183.073 822.606 181.473 824.756 179.573 827.156C177.773 829.456 175.923 831.506 174.023 833.306C171.523 835.706 168.823 837.756 165.923 839.456C163.123 841.056 160.223 841.856 157.223 841.856ZM314.501 845.906C314.201 845.906 313.901 845.806 313.601 845.606C313.401 845.406 313.351 845.256 313.451 845.156C314.151 844.256 314.701 843.256 315.101 842.156C315.601 841.156 316.051 840.106 316.451 839.006C315.151 832.006 313.401 824.706 311.201 817.106C309.101 809.506 306.801 801.906 304.301 794.306C301.901 786.606 299.601 779.306 297.401 772.406C296.701 772.906 295.951 774.106 295.151 776.006C294.451 777.906 293.951 779.306 293.651 780.206C292.351 783.606 290.801 787.606 289.001 792.206C287.301 796.706 285.351 801.406 283.151 806.306C281.051 811.106 278.651 815.856 275.951 820.556C273.351 825.156 270.451 829.356 267.251 833.156C265.751 835.056 263.701 836.756 261.101 838.256C258.501 839.656 255.801 840.756 253.001 841.556C250.201 842.456 247.651 842.906 245.351 842.906C242.251 842.906 239.251 842.056 236.351 840.356C233.551 838.556 231.451 835.856 230.051 832.256C229.651 830.956 229.351 829.606 229.151 828.206C228.951 826.706 228.851 825.256 228.851 823.856C228.851 822.456 229.101 821.756 229.601 821.756C230.101 821.756 230.351 822.156 230.351 822.956C230.351 827.656 231.651 831.556 234.251 834.656C236.851 837.756 239.951 839.306 243.551 839.306C247.051 839.306 250.551 838.456 254.051 836.756C257.551 835.056 260.701 832.706 263.501 829.706C268.001 824.706 271.801 819.406 274.901 813.806C278.001 808.206 280.751 802.406 283.151 796.406C285.551 790.406 288.001 784.406 290.501 778.406C292.001 774.606 294.101 771.306 296.801 768.506C299.501 765.706 302.651 763.956 306.251 763.256H298.001C294.501 763.256 290.801 763.406 286.901 763.706C283.001 764.006 279.451 764.656 276.251 765.656C273.051 766.656 270.751 768.156 269.351 770.156C268.551 771.356 268.151 772.806 268.151 774.506C268.151 776.306 268.601 778.006 269.501 779.606C270.401 781.206 271.551 782.356 272.951 783.056C273.151 783.256 273.251 783.356 273.251 783.356C273.251 783.656 273.001 783.956 272.501 784.256C272.101 784.456 271.651 784.506 271.151 784.406C270.351 783.906 269.351 783.106 268.151 782.006C266.951 780.806 265.851 779.556 264.851 778.256C263.951 776.956 263.351 775.856 263.051 774.956C262.651 773.756 262.451 772.556 262.451 771.356C262.451 768.956 263.301 767.006 265.001 765.506C266.801 764.006 269.101 762.856 271.901 762.056C274.701 761.256 277.701 760.706 280.901 760.406C284.201 760.006 287.351 759.806 290.351 759.806C293.351 759.706 295.951 759.656 298.151 759.656H316.301C316.801 759.556 316.801 759.906 316.301 760.706C315.901 761.506 315.351 762.306 314.651 763.106C314.051 763.806 313.551 764.156 313.151 764.156C312.151 764.056 310.601 764.256 308.501 764.756C306.501 765.156 305.101 765.656 304.301 766.256C304.601 770.056 305.301 774.506 306.401 779.606C307.601 784.706 309.001 790.106 310.601 795.806C312.201 801.406 313.951 807.056 315.851 812.756C317.851 818.356 319.801 823.606 321.701 828.506C323.301 824.706 325.101 820.056 327.101 814.556C329.101 809.056 331.201 803.206 333.401 797.006C335.701 790.806 338.051 784.806 340.451 779.006C342.951 773.106 345.401 767.856 347.801 763.256C350.301 758.656 352.751 755.256 355.151 753.056C356.351 751.956 357.801 751.106 359.501 750.506C361.201 749.806 362.801 749.456 364.301 749.456C365.701 749.456 366.901 749.806 367.901 750.506C368.901 751.106 369.351 752.106 369.251 753.506L369.101 758.906C369.101 759.006 368.851 759.106 368.351 759.206C367.851 759.306 367.651 759.306 367.751 759.206C367.851 757.906 367.351 757.006 366.251 756.506C365.151 755.906 364.251 755.606 363.551 755.606C361.451 755.506 359.201 756.806 356.801 759.506C354.501 762.206 352.101 765.756 349.601 770.156C347.101 774.556 344.651 779.406 342.251 784.706C339.851 789.906 337.551 795.156 335.351 800.456C333.251 805.656 331.351 810.456 329.651 814.856C327.951 819.256 326.551 822.706 325.451 825.206C324.451 827.306 323.951 829.356 323.951 831.356C323.951 831.656 323.951 831.956 323.951 832.256C323.951 832.556 324.001 832.856 324.101 833.156C324.101 833.556 324.151 834.006 324.251 834.506C324.451 835.006 324.601 835.506 324.701 836.006C324.701 836.106 324.701 836.206 324.701 836.306C324.801 836.406 324.851 836.556 324.851 836.756C324.851 837.556 324.451 838.256 323.651 838.856C322.651 839.556 321.551 840.156 320.351 840.656C319.651 840.956 318.651 841.706 317.351 842.906C316.151 844.206 315.401 845.106 315.101 845.606C314.901 845.806 314.701 845.906 314.501 845.906ZM372.357 784.106C370.957 784.106 369.957 783.656 369.357 782.756C368.957 782.256 368.757 781.606 368.757 780.806C368.757 779.206 369.507 777.906 371.007 776.906C372.107 776.306 373.107 776.006 374.007 776.006C375.507 776.006 376.557 776.456 377.157 777.356C377.557 777.856 377.757 778.506 377.757 779.306C377.757 780.906 376.957 782.206 375.357 783.206C374.457 783.806 373.457 784.106 372.357 784.106ZM346.257 841.856C345.257 841.856 344.407 841.656 343.707 841.256C343.107 840.856 342.807 840.106 342.807 839.006C342.807 837.606 343.157 835.956 343.857 834.056C344.657 832.156 345.507 830.256 346.407 828.356C347.407 826.456 348.157 824.906 348.657 823.706C349.357 822.306 350.207 820.506 351.207 818.306C352.307 816.006 353.307 813.856 354.207 811.856C355.207 809.756 355.907 808.306 356.307 807.506C354.907 809.006 353.207 810.906 351.207 813.206C349.307 815.406 347.507 817.556 345.807 819.656C344.107 821.756 342.807 823.406 341.907 824.606C341.607 825.006 341.357 825.206 341.157 825.206C340.957 825.206 340.857 824.956 340.857 824.456C340.857 823.656 341.107 822.906 341.607 822.206C343.507 819.806 345.607 817.106 347.907 814.106C350.307 811.106 352.457 808.356 354.357 805.856C356.257 803.256 357.457 801.556 357.957 800.756C359.057 800.556 360.657 800.256 362.757 799.856C364.957 799.456 366.457 798.906 367.257 798.206C367.557 797.906 367.857 797.756 368.157 797.756C368.357 797.756 368.457 797.956 368.457 798.356C368.557 798.656 368.457 799.006 368.157 799.406C367.557 800.106 366.507 801.806 365.007 804.506C363.507 807.206 361.907 810.206 360.207 813.506C358.607 816.706 357.107 819.606 355.707 822.206C354.307 824.906 353.107 827.506 352.107 830.006C351.107 832.506 350.607 834.306 350.607 835.406C350.607 836.806 351.307 837.506 352.707 837.506C354.007 837.506 355.657 836.706 357.657 835.106C359.757 833.506 361.857 831.606 363.957 829.406C366.057 827.106 367.907 825.006 369.507 823.106C370.007 822.506 370.607 821.806 371.307 821.006C372.107 820.106 372.607 819.556 372.807 819.356C373.007 819.556 373.107 819.906 373.107 820.406C373.007 821.106 372.757 821.806 372.357 822.506C371.957 823.106 371.557 823.656 371.157 824.156C369.057 826.756 366.757 829.456 364.257 832.256C361.757 834.956 359.007 837.256 356.007 839.156C353.007 840.956 349.757 841.856 346.257 841.856ZM370.914 843.656C370.514 843.656 370.514 843.206 370.914 842.306C371.414 841.406 371.864 840.406 372.264 839.306C372.764 838.206 373.264 837.006 373.764 835.706C374.764 833.306 375.864 830.606 377.064 827.606C378.264 824.606 379.414 821.706 380.514 818.906C381.614 816.006 382.564 813.556 383.364 811.556C384.264 809.456 384.864 808.106 385.164 807.506C383.764 809.006 382.064 810.906 380.064 813.206C378.164 815.406 376.364 817.556 374.664 819.656C372.964 821.756 371.664 823.406 370.764 824.606C370.464 825.006 370.214 825.206 370.014 825.206C369.814 825.206 369.714 824.956 369.714 824.456C369.714 823.656 369.964 822.906 370.464 822.206C372.364 819.806 374.464 817.106 376.764 814.106C379.164 811.106 381.314 808.356 383.214 805.856C385.114 803.256 386.314 801.556 386.814 800.756C387.914 800.556 389.514 800.256 391.614 799.856C393.814 799.456 395.314 798.906 396.114 798.206C396.414 797.906 396.714 797.756 397.014 797.756C397.214 797.756 397.314 797.956 397.314 798.356C397.414 798.656 397.314 799.006 397.014 799.406C396.414 800.106 395.364 801.756 393.864 804.356C392.464 806.856 390.914 809.656 389.214 812.756C387.614 815.856 386.114 818.656 384.714 821.156C385.914 819.556 387.214 818.006 388.614 816.506C390.014 815.006 391.364 813.556 392.664 812.156C393.864 810.956 395.514 809.456 397.614 807.656C399.714 805.856 401.914 804.206 404.214 802.706C406.514 801.206 408.514 800.356 410.214 800.156C410.614 800.056 410.964 800.006 411.264 800.006C411.664 800.006 411.964 800.006 412.164 800.006C414.364 800.006 415.464 800.806 415.464 802.406C415.464 803.606 414.814 805.206 413.514 807.206C412.814 808.306 411.714 810.156 410.214 812.756C408.814 815.256 407.364 818.006 405.864 821.006C404.464 823.906 403.214 826.656 402.114 829.256C401.114 831.756 400.614 833.606 400.614 834.806C400.614 836.206 401.314 836.906 402.714 836.906C404.414 836.906 406.264 836.056 408.264 834.356C410.364 832.656 412.614 830.506 415.014 827.906C417.414 825.206 419.814 822.356 422.214 819.356C422.414 819.556 422.514 819.906 422.514 820.406C422.514 821.106 422.264 821.806 421.764 822.506C421.364 823.106 420.964 823.656 420.564 824.156C419.564 825.456 418.214 827.106 416.514 829.106C414.914 831.006 413.264 832.906 411.564 834.806C409.864 836.606 408.314 838.056 406.914 839.156C405.914 839.856 404.614 840.606 403.014 841.406C401.414 842.206 399.814 842.606 398.214 842.606C396.414 842.606 395.164 842.156 394.464 841.256C393.764 840.256 393.414 839.056 393.414 837.656C393.414 836.056 393.714 834.356 394.314 832.556C394.914 830.756 395.564 829.056 396.264 827.456C397.064 825.756 397.664 824.506 398.064 823.706C399.864 820.206 401.514 816.906 403.014 813.806C404.514 810.706 405.564 808.506 406.164 807.206C406.464 806.606 406.614 806.106 406.614 805.706C406.614 805.006 406.064 804.956 404.964 805.556C403.864 806.156 402.514 807.056 400.914 808.256C399.414 809.456 398.014 810.656 396.714 811.856C395.414 812.956 394.564 813.706 394.164 814.106C390.464 818.006 387.214 822.356 384.414 827.156C381.714 831.856 379.414 836.706 377.514 841.706C376.214 841.806 374.914 842.156 373.614 842.756C372.314 843.356 371.414 843.656 370.914 843.656ZM443.676 784.106C442.276 784.106 441.276 783.656 440.676 782.756C440.276 782.256 440.076 781.606 440.076 780.806C440.076 779.206 440.876 777.906 442.476 776.906C443.376 776.306 444.376 776.006 445.476 776.006C446.876 776.006 447.876 776.456 448.476 777.356C448.876 777.856 449.076 778.506 449.076 779.306C449.076 780.906 448.276 782.206 446.676 783.206C445.776 783.806 444.776 784.106 443.676 784.106ZM371.976 893.906C368.176 893.906 364.526 893.006 361.026 891.206C357.426 889.506 354.776 886.856 353.076 883.256C352.476 881.956 352.076 880.556 351.876 879.056C351.676 877.656 351.576 876.256 351.576 874.856V873.206C351.576 872.406 351.676 871.656 351.876 870.956C352.076 870.356 352.576 870.056 353.376 870.056C353.676 870.056 353.826 870.156 353.826 870.356C353.826 870.956 353.776 871.556 353.676 872.156C353.476 872.756 353.376 873.406 353.376 874.106C353.376 878.706 354.876 882.206 357.876 884.606C360.776 887.006 364.426 888.206 368.826 888.206C370.626 888.206 372.476 888.006 374.376 887.606C376.276 887.206 378.076 886.656 379.776 885.956C386.076 883.256 391.576 879.406 396.276 874.406C400.876 869.506 404.926 863.956 408.426 857.756C411.926 851.556 415.076 845.256 417.876 838.856C420.276 833.256 422.276 828.006 423.876 823.106C425.476 818.206 426.726 814.156 427.626 810.956C428.626 807.756 429.276 806.006 429.576 805.706C431.176 804.106 433.276 802.806 435.876 801.806C438.476 800.706 440.526 800.156 442.026 800.156C443.226 800.156 443.826 800.456 443.826 801.056C443.826 801.856 443.376 802.256 442.476 802.256C441.376 802.256 440.376 802.556 439.476 803.156C438.576 803.656 437.876 804.306 437.376 805.106C436.476 806.406 435.176 808.756 433.476 812.156C431.876 815.556 430.076 819.506 428.076 824.006C426.176 828.406 424.276 832.906 422.376 837.506C420.476 842.006 418.726 846.156 417.126 849.956C414.726 855.656 412.026 861.206 409.026 866.606C405.926 872.106 402.276 877.006 398.076 881.306C393.876 885.706 388.926 889.156 383.226 891.656C379.826 893.156 376.076 893.906 371.976 893.906ZM460.141 841.856C459.141 841.856 458.291 841.656 457.591 841.256C456.891 840.856 456.541 840.106 456.541 839.006C456.541 837.606 456.891 836.006 457.591 834.206C458.291 832.406 459.091 830.656 459.991 828.956C460.891 827.156 461.691 825.706 462.391 824.606C458.891 828.306 455.241 831.806 451.441 835.106C449.541 836.706 447.441 838.206 445.141 839.606C442.841 841.006 440.391 841.706 437.791 841.706C436.791 841.706 436.091 841.406 435.691 840.806C435.291 840.106 435.091 839.306 435.091 838.406C435.091 837.906 435.141 837.556 435.241 837.356C435.741 833.456 436.991 829.406 438.991 825.206C440.991 821.006 443.441 817.056 446.341 813.356C449.241 809.656 452.191 806.656 455.191 804.356C458.591 801.756 462.341 800.456 466.441 800.456H483.691C484.191 800.456 484.441 800.656 484.441 801.056C484.441 801.856 483.991 802.256 483.091 802.256C482.091 802.256 481.091 802.906 480.091 804.206C479.091 805.406 478.341 806.406 477.841 807.206C477.141 808.306 476.041 810.156 474.541 812.756C473.041 815.356 471.491 818.206 469.891 821.306C468.391 824.306 467.091 827.106 465.991 829.706C464.891 832.306 464.341 834.206 464.341 835.406C464.341 836.806 465.041 837.506 466.441 837.506C467.941 837.506 469.641 836.806 471.541 835.406C473.441 834.006 475.341 832.306 477.241 830.306C479.241 828.206 481.041 826.156 482.641 824.156C484.341 822.056 485.691 820.406 486.691 819.206C487.291 819.806 487.241 820.656 486.541 821.756C485.941 822.756 485.391 823.556 484.891 824.156C482.891 826.756 480.591 829.456 477.991 832.256C475.391 834.956 472.541 837.256 469.441 839.156C466.441 840.956 463.341 841.856 460.141 841.856ZM443.941 836.606C445.141 836.606 446.791 835.756 448.891 834.056C451.091 832.256 453.441 830.056 455.941 827.456C458.441 824.756 460.791 821.956 462.991 819.056C465.191 816.056 466.991 813.356 468.391 810.956C469.891 808.456 470.641 806.556 470.641 805.256C470.641 804.156 470.291 803.406 469.591 803.006C468.991 802.606 468.191 802.406 467.191 802.406C465.591 802.406 463.841 803.006 461.941 804.206C460.141 805.306 458.691 806.406 457.591 807.506C456.391 808.606 454.941 810.356 453.241 812.756C451.641 815.056 450.041 817.606 448.441 820.406C446.841 823.206 445.491 825.906 444.391 828.506C443.291 831.106 442.741 833.206 442.741 834.806C442.741 836.006 443.141 836.606 443.941 836.606Z" fill="white"/>
</svg>
