<svg width="497" height="877" viewBox="0 0 497 877" fill="none" xmlns="http://www.w3.org/2000/svg">
<path fill-rule="evenodd" clip-rule="evenodd" d="M201.119 75.1875C201.119 75.1875 199.939 93.8075 198.899 96.0175C197.859 98.2275 209.209 106.297 211.029 110.497C212.849 114.697 234.529 96.6675 245.539 95.4975C247.487 95.7075 249.452 95.7075 251.399 95.4975C262.399 96.6675 284.079 114.697 285.909 110.497C287.739 106.297 299.069 98.2375 298.039 96.0175C297.009 93.7975 295.819 75.1875 295.819 75.1875C277.179 82.8375 256.819 86.9075 248.469 87.1875C240.169 86.9575 219.759 82.8875 201.119 75.1875Z" fill="black"/>
<path fill-rule="evenodd" clip-rule="evenodd" d="M72.2008 95.8216L89.2807 80.8816C90.4839 79.8238 91.2194 78.3327 91.3262 76.7342C91.4331 75.1357 90.9025 73.56 89.8507 72.3516L79.6307 60.6916C78.5666 59.4908 77.0718 58.7585 75.4709 58.6537C73.87 58.5488 72.2923 59.0799 71.0808 60.1316L54.0007 75.0716C52.7965 76.1292 52.0614 77.6215 51.9564 79.2207C51.8514 80.82 52.3852 82.3956 53.4407 83.6016L63.6607 95.2816C64.723 96.4817 66.2162 97.2138 67.8155 97.3186C69.4148 97.4235 70.9908 96.8927 72.2008 95.8416" fill="white"/>
<path fill-rule="evenodd" clip-rule="evenodd" d="M114.469 150.283L119.339 155.833L111.339 162.833C109.732 164.245 108.75 166.236 108.608 168.371C108.465 170.506 109.174 172.61 110.579 174.223L112.689 176.623C114.105 178.231 116.1 179.214 118.238 179.356C120.375 179.499 122.483 178.789 124.099 177.383L132.099 170.383L161.949 204.383C164.432 207.201 167.929 208.923 171.677 209.17C175.425 209.417 179.118 208.171 181.949 205.703L183.949 203.923C186.762 201.45 188.48 197.963 188.727 194.226C188.974 190.488 187.731 186.806 185.269 183.983L155.409 149.983L163.409 142.983C165.019 141.57 166.003 139.577 166.146 137.44C166.288 135.303 165.577 133.197 164.169 131.583L162.059 129.183C160.642 127.576 158.647 126.596 156.509 126.455C154.371 126.314 152.265 127.026 150.649 128.433L142.649 135.433L137.789 129.883L121.569 134.883L114.469 150.283Z" fill="white"/>
<path fill-rule="evenodd" clip-rule="evenodd" d="M107.621 142.477L113.291 148.947L119.471 135.547L109.381 138.647L107.621 142.477Z" fill="white"/>
<path fill-rule="evenodd" clip-rule="evenodd" d="M105.35 139.897L106.44 141.137L107.28 139.297L105.35 139.897Z" fill="white"/>
<path fill-rule="evenodd" clip-rule="evenodd" d="M122.49 132.896L136.6 128.546L130.93 122.086L126.9 123.326L122.49 132.896Z" fill="white"/>
<path fill-rule="evenodd" clip-rule="evenodd" d="M110.311 136.657L120.38 133.547L124.801 123.977L114.711 127.087L110.311 136.657Z" fill="black"/>
<path fill-rule="evenodd" clip-rule="evenodd" d="M100.77 134.667L104.17 138.547L108.2 137.307L112.609 127.727L102.53 130.837L100.77 134.667Z" fill="white"/>
<path fill-rule="evenodd" clip-rule="evenodd" d="M98.5 132.082L99.5801 133.322L100.43 131.492L98.5 132.082Z" fill="white"/>
<path fill-rule="evenodd" clip-rule="evenodd" d="M127.82 121.34L129.75 120.74L128.66 119.5L127.82 121.34Z" fill="white"/>
<path fill-rule="evenodd" clip-rule="evenodd" d="M115.631 125.091L125.721 121.981L127.481 118.151L124.081 114.281L120.051 115.521L115.631 125.091Z" fill="white"/>
<path fill-rule="evenodd" clip-rule="evenodd" d="M103.449 128.852L113.529 125.742L117.939 116.172L107.859 119.272L103.449 128.852Z" fill="black"/>
<path fill-rule="evenodd" clip-rule="evenodd" d="M93.9102 126.86L97.3102 130.74L101.35 129.49L105.76 119.93L95.6802 123.03L93.9102 126.86Z" fill="white"/>
<path fill-rule="evenodd" clip-rule="evenodd" d="M91.6406 124.272L92.7306 125.512L93.5707 123.672L91.6406 124.272Z" fill="white"/>
<path fill-rule="evenodd" clip-rule="evenodd" d="M120.971 113.518L122.901 112.928L121.811 111.688L120.971 113.518Z" fill="white"/>
<path fill-rule="evenodd" clip-rule="evenodd" d="M108.781 117.281L118.861 114.171L120.631 110.341L117.231 106.461L113.191 107.711L108.781 117.281Z" fill="white"/>
<path fill-rule="evenodd" clip-rule="evenodd" d="M96.5996 121.032L106.68 117.922L111.09 108.352L101.01 111.462L96.5996 121.032Z" fill="black"/>
<path fill-rule="evenodd" clip-rule="evenodd" d="M87.0605 119.049L90.4606 122.919L94.4905 121.679L98.9005 112.109L88.8306 115.209L87.0605 119.049Z" fill="white"/>
<path fill-rule="evenodd" clip-rule="evenodd" d="M84.7891 116.457L85.879 117.697L86.7191 115.867L84.7891 116.457Z" fill="white"/>
<path fill-rule="evenodd" clip-rule="evenodd" d="M114.109 105.713L116.039 105.113L114.959 103.883L114.109 105.713Z" fill="white"/>
<path fill-rule="evenodd" clip-rule="evenodd" d="M101.93 109.458L112.01 106.358L113.77 102.528L110.37 98.6484L106.34 99.8884L101.93 109.458Z" fill="white"/>
<path fill-rule="evenodd" clip-rule="evenodd" d="M89.75 113.219L99.8301 110.109L104.24 100.539L94.16 103.649L89.75 113.219Z" fill="black"/>
<path fill-rule="evenodd" clip-rule="evenodd" d="M80.2109 111.229L83.6108 115.109L87.6409 113.869L92.0509 104.289L81.9709 107.399L80.2109 111.229Z" fill="white"/>
<path fill-rule="evenodd" clip-rule="evenodd" d="M77.9395 108.647L79.0194 109.887L79.8694 108.047L77.9395 108.647Z" fill="white"/>
<path fill-rule="evenodd" clip-rule="evenodd" d="M107.26 97.8925L109.19 97.3025L108.11 96.0625L107.26 97.8925Z" fill="white"/>
<path fill-rule="evenodd" clip-rule="evenodd" d="M95.0801 101.646L105.16 98.5359L106.92 94.7059L103.52 90.8359L99.49 92.0759L95.0801 101.646Z" fill="white"/>
<path fill-rule="evenodd" clip-rule="evenodd" d="M82.8906 105.407L92.9707 102.297L97.3806 92.7266L87.3107 95.8265L82.8906 105.407Z" fill="black"/>
<path fill-rule="evenodd" clip-rule="evenodd" d="M73.3496 103.417L76.7596 107.287L80.7897 106.047L85.1997 96.4766L75.1196 99.5865L73.3496 103.417Z" fill="white"/>
<path fill-rule="evenodd" clip-rule="evenodd" d="M71.0801 100.832L72.17 102.072L73.02 100.242L71.0801 100.832Z" fill="white"/>
<path fill-rule="evenodd" clip-rule="evenodd" d="M95.4905 81.6697L94.4005 80.4297L93.5605 82.2697L95.4905 81.6697Z" fill="white"/>
<path fill-rule="evenodd" clip-rule="evenodd" d="M100.41 90.08L102.34 89.4901L101.25 88.25L100.41 90.08Z" fill="white"/>
<path fill-rule="evenodd" clip-rule="evenodd" d="M88.2305 93.8334L98.3005 90.7335L100.071 86.9034L96.6705 83.0234L92.6405 84.2734L88.2305 93.8334Z" fill="white"/>
<path fill-rule="evenodd" clip-rule="evenodd" d="M89.2791 85.2963L76.5891 96.3962L76.0391 97.5862L86.119 94.4863L90.5291 84.9062L89.2791 85.2963Z" fill="black"/>
<path fill-rule="evenodd" clip-rule="evenodd" d="M424.74 95.8207L407.66 80.8807C407.058 80.3608 406.566 79.7263 406.211 79.0143C405.856 78.3022 405.647 77.5267 405.595 76.733C405.543 75.9392 405.649 75.143 405.908 74.3907C406.166 73.6383 406.571 72.9449 407.1 72.3507L417.32 60.6907C418.383 59.4906 419.876 58.7585 421.475 58.6537C423.074 58.5488 424.65 59.0796 425.86 60.1307L442.91 75.0707C444.113 76.1284 444.849 77.6196 444.956 79.2181C445.063 80.8166 444.532 82.3923 443.48 83.6007L433.28 95.2807C432.218 96.4808 430.725 97.2129 429.125 97.3178C427.526 97.4227 425.95 96.8918 424.74 95.8407" fill="white"/>
<path fill-rule="evenodd" clip-rule="evenodd" d="M382.47 150.277L377.6 155.827L385.6 162.827C387.209 164.238 388.193 166.229 388.336 168.365C388.478 170.5 387.768 172.605 386.36 174.217L384.25 176.617C382.834 178.225 380.84 179.208 378.702 179.35C376.564 179.492 374.457 178.783 372.84 177.377L364.84 170.377L334.99 204.377C332.508 207.195 329.01 208.916 325.263 209.164C321.515 209.411 317.822 208.165 314.99 205.697L312.99 203.917C310.178 201.443 308.46 197.956 308.213 194.219C307.965 190.482 309.208 186.799 311.67 183.977L341.53 149.977L333.53 142.977C331.92 141.564 330.936 139.571 330.794 137.434C330.651 135.297 331.362 133.191 332.77 131.577L334.91 129.277C336.327 127.67 338.323 126.689 340.461 126.549C342.598 126.408 344.705 127.119 346.32 128.527L354.32 135.527L359.18 129.977L375.41 134.977L382.47 150.277Z" fill="white"/>
<path fill-rule="evenodd" clip-rule="evenodd" d="M389.321 142.477L383.651 148.947L377.48 135.547L387.561 138.647L389.321 142.477Z" fill="white"/>
<path fill-rule="evenodd" clip-rule="evenodd" d="M391.59 139.897L390.51 141.137L389.66 139.297L391.59 139.897Z" fill="white"/>
<path fill-rule="evenodd" clip-rule="evenodd" d="M374.46 132.896L360.34 128.546L366.01 122.086L370.04 123.326L374.46 132.896Z" fill="white"/>
<path fill-rule="evenodd" clip-rule="evenodd" d="M386.641 136.657L376.561 133.547L372.141 123.977L382.231 127.087L386.641 136.657Z" fill="black"/>
<path fill-rule="evenodd" clip-rule="evenodd" d="M396.18 134.667L392.78 138.547L388.74 137.307L384.33 127.727L394.41 130.837L396.18 134.667Z" fill="white"/>
<path fill-rule="evenodd" clip-rule="evenodd" d="M398.44 132.082L397.36 133.322L396.51 131.492L398.44 132.082Z" fill="white"/>
<path fill-rule="evenodd" clip-rule="evenodd" d="M369.119 121.34L367.189 120.74L368.279 119.5L369.119 121.34Z" fill="white"/>
<path fill-rule="evenodd" clip-rule="evenodd" d="M381.311 125.091L371.231 121.981L369.461 118.151L372.861 114.281L376.901 115.521L381.311 125.091Z" fill="white"/>
<path fill-rule="evenodd" clip-rule="evenodd" d="M393.49 128.852L383.41 125.742L379 116.172L389.08 119.272L393.49 128.852Z" fill="black"/>
<path fill-rule="evenodd" clip-rule="evenodd" d="M403.03 126.862L399.63 130.742L395.59 129.492L391.18 119.922L401.26 123.032L403.03 126.862Z" fill="white"/>
<path fill-rule="evenodd" clip-rule="evenodd" d="M405.301 124.272L404.211 125.512L403.371 123.672L405.301 124.272Z" fill="white"/>
<path fill-rule="evenodd" clip-rule="evenodd" d="M375.979 113.518L374.039 112.928L375.129 111.688L375.979 113.518Z" fill="white"/>
<path fill-rule="evenodd" clip-rule="evenodd" d="M388.16 117.281L378.08 114.171L376.32 110.341L379.71 106.461L383.75 107.711L388.16 117.281Z" fill="white"/>
<path fill-rule="evenodd" clip-rule="evenodd" d="M400.34 121.032L390.26 117.922L385.85 108.352L395.93 111.462L400.34 121.032Z" fill="black"/>
<path fill-rule="evenodd" clip-rule="evenodd" d="M409.879 119.049L406.479 122.919L402.449 121.679L398.039 112.109L408.109 115.209L409.879 119.049Z" fill="white"/>
<path fill-rule="evenodd" clip-rule="evenodd" d="M412.151 116.459L411.061 117.699L410.221 115.859L412.151 116.459Z" fill="white"/>
<path fill-rule="evenodd" clip-rule="evenodd" d="M382.83 105.713L380.9 105.113L381.98 103.883L382.83 105.713Z" fill="white"/>
<path fill-rule="evenodd" clip-rule="evenodd" d="M395.01 109.458L384.93 106.358L383.17 102.528L386.57 98.6484L390.6 99.8884L395.01 109.458Z" fill="white"/>
<path fill-rule="evenodd" clip-rule="evenodd" d="M407.189 113.219L397.119 110.109L392.699 100.539L402.789 103.649L407.189 113.219Z" fill="black"/>
<path fill-rule="evenodd" clip-rule="evenodd" d="M416.741 111.229L413.331 115.109L409.301 113.869L404.891 104.289L414.971 107.399L416.741 111.229Z" fill="white"/>
<path fill-rule="evenodd" clip-rule="evenodd" d="M419 108.647L417.92 109.887L417.07 108.047L419 108.647Z" fill="white"/>
<path fill-rule="evenodd" clip-rule="evenodd" d="M389.68 97.8925L387.75 97.3025L388.84 96.0625L389.68 97.8925Z" fill="white"/>
<path fill-rule="evenodd" clip-rule="evenodd" d="M401.859 101.646L391.79 98.5359L390.02 94.7059L393.42 90.8359L397.46 92.0759L401.859 101.646Z" fill="white"/>
<path fill-rule="evenodd" clip-rule="evenodd" d="M414.051 105.407L403.971 102.297L399.561 92.7266L409.641 95.8265L414.051 105.407Z" fill="black"/>
<path fill-rule="evenodd" clip-rule="evenodd" d="M423.59 103.417L420.19 107.287L416.15 106.047L411.74 96.4766L421.82 99.5865L423.59 103.417Z" fill="white"/>
<path fill-rule="evenodd" clip-rule="evenodd" d="M425.86 100.832L424.77 102.072L423.92 100.242L425.86 100.832Z" fill="white"/>
<path fill-rule="evenodd" clip-rule="evenodd" d="M401.461 81.6697L402.541 80.4297L403.391 82.2697L401.461 81.6697Z" fill="white"/>
<path fill-rule="evenodd" clip-rule="evenodd" d="M396.53 90.08L394.6 89.4901L395.69 88.25L396.53 90.08Z" fill="white"/>
<path fill-rule="evenodd" clip-rule="evenodd" d="M408.721 93.8334L398.641 90.7335L396.871 86.9034L400.271 83.0234L404.311 84.2734L408.721 93.8334Z" fill="white"/>
<path fill-rule="evenodd" clip-rule="evenodd" d="M407.66 85.2963L420.35 96.3962L420.9 97.5862L410.82 94.4863L406.41 84.9062L407.66 85.2963Z" fill="black"/>
<path fill-rule="evenodd" clip-rule="evenodd" d="M164.13 176.283C164.13 176.283 127.22 190.423 115.2 197.283C103.18 204.143 91.6003 216.573 95.4603 238.003C99.3203 259.433 85.5903 305.723 85.5903 305.723C85.5903 305.723 82.3702 322.663 86.2302 325.873C90.0902 329.083 113.7 305.723 113.7 305.723C113.7 305.723 139.7 401.103 146.09 407.963C152.48 414.823 104.46 392.963 104.46 392.963C104.46 392.963 50.3802 368.323 32.7902 389.963C15.2002 411.603 -4.7698 423.823 1.0202 442.033C6.8102 460.243 42.0202 523.903 55.7402 525.623C69.4602 527.343 87.2802 531.403 91.3602 533.973C95.4402 536.543 117.97 541.263 122.9 553.693C127.83 566.123 141.14 561.623 141.14 561.623C141.14 561.623 156.37 568.693 156.37 575.553V583.483L187.7 598.693L179.11 620.563L145.2 683.993L145.62 692.603C213.281 708.336 283.65 708.336 351.31 692.603L351.74 683.993L317.83 620.563L309.24 598.693L340.57 583.483V575.553C340.57 568.693 355.8 561.623 355.8 561.623C355.8 561.623 369.1 566.123 374.03 553.693C378.96 541.263 401.5 536.543 405.58 533.973C409.66 531.403 427.47 527.333 441.2 525.623C454.93 523.913 490.12 460.253 495.92 442.033C501.72 423.813 481.75 411.603 464.15 389.963C446.55 368.323 392.48 392.963 392.48 392.963C392.48 392.963 344.41 414.823 350.85 407.963C357.29 401.103 383.24 305.723 383.24 305.723C383.24 305.723 406.85 329.093 410.71 325.873C412.44 324.433 412.71 320.223 412.56 316.033C412.372 312.574 411.968 309.131 411.35 305.723C411.35 305.723 397.61 259.433 401.48 238.003C405.35 216.573 393.75 204.143 381.74 197.283C369.73 190.423 332.81 176.283 332.81 176.283L310.25 158.613L248.47 152.133L186.69 158.613L164.13 176.283Z" fill="white"/>
<path fill-rule="evenodd" clip-rule="evenodd" d="M248.47 242.961C265.47 242.371 303.57 237.961 319.65 211.041C340.65 175.871 353.31 167.231 350.35 162.801C347.39 158.371 329.05 149.351 325.2 157.481C321.35 165.611 309.74 174.691 305.01 178.091C300.28 181.491 297.39 181.711 297.39 181.711C305.83 176.821 325.81 152.411 321.1 146.131C313.19 135.611 311.38 151.341 305.44 151.641C305.44 151.641 307.33 144.701 307.78 143.411C308.23 142.121 311.58 136.201 311.58 130.891C311.58 125.581 316.46 50.8108 311.73 40.1708C307.45 30.5708 291.73 5.10083 266.55 0.650827H266.46C263.677 0.161939 260.854 -0.052439 258.03 0.0108124C254.38 0.0708124 251.22 0.140815 248.47 0.200815C233.96 0.500815 231.01 0.610827 230.47 0.650827H230.38C205.19 5.10083 189.48 30.5708 185.2 40.1708C180.47 50.8108 185.35 125.571 185.35 130.891C185.35 136.211 188.71 142.111 189.15 143.411C189.59 144.711 191.49 151.641 191.49 151.641C185.56 151.341 183.74 135.641 175.83 146.131C171.12 152.411 191.1 176.821 199.54 181.711C199.54 181.711 196.65 181.491 191.92 178.091C187.19 174.691 175.58 165.611 171.73 157.481C167.88 149.351 149.54 158.371 146.58 162.801C143.62 167.231 156.27 175.871 177.28 211.041C193.36 237.971 231.49 242.371 248.46 242.961" fill="white"/>
<path fill-rule="evenodd" clip-rule="evenodd" d="M201.119 75.1875C201.119 75.1875 199.939 93.8075 198.899 96.0175C197.859 98.2275 209.209 106.297 211.029 110.497C212.849 114.697 234.529 96.6675 245.539 95.4975C247.487 95.7075 249.452 95.7075 251.399 95.4975C262.399 96.6675 284.079 114.697 285.909 110.497C287.739 106.297 299.069 98.2375 298.039 96.0175C297.009 93.7975 295.819 75.1875 295.819 75.1875C277.179 82.8375 256.819 86.9075 248.469 87.1875C240.169 86.9575 219.759 82.8875 201.119 75.1875Z" fill="black"/>
<path fill-rule="evenodd" clip-rule="evenodd" d="M114.469 150.283L119.339 155.833L111.339 162.833C109.732 164.245 108.75 166.236 108.608 168.371C108.465 170.506 109.174 172.61 110.579 174.223L112.689 176.623C114.105 178.231 116.1 179.214 118.238 179.356C120.375 179.499 122.483 178.789 124.099 177.383L132.099 170.383L161.949 204.383C164.432 207.201 167.929 208.923 171.677 209.17C175.425 209.417 179.118 208.171 181.949 205.703L183.949 203.923C186.762 201.45 188.48 197.963 188.727 194.226C188.974 190.488 187.731 186.806 185.269 183.983L155.409 149.983L163.409 142.983C165.019 141.57 166.003 139.577 166.146 137.44C166.288 135.303 165.577 133.197 164.169 131.583L162.059 129.183C160.642 127.576 158.647 126.596 156.509 126.455C154.371 126.314 152.265 127.026 150.649 128.433L142.649 135.433L137.789 129.883L121.569 134.883L114.469 150.283Z" fill="white"/>
<path fill-rule="evenodd" clip-rule="evenodd" d="M107.621 142.477L113.291 148.947L119.471 135.547L109.381 138.647L107.621 142.477Z" fill="white"/>
<path fill-rule="evenodd" clip-rule="evenodd" d="M105.35 139.897L106.44 141.137L107.28 139.297L105.35 139.897Z" fill="white"/>
<path fill-rule="evenodd" clip-rule="evenodd" d="M122.49 132.896L136.6 128.546L130.93 122.086L126.9 123.326L122.49 132.896Z" fill="white"/>
<path fill-rule="evenodd" clip-rule="evenodd" d="M110.311 136.657L120.38 133.547L124.801 123.977L114.711 127.087L110.311 136.657Z" fill="black"/>
<path fill-rule="evenodd" clip-rule="evenodd" d="M100.77 134.667L104.17 138.547L108.2 137.307L112.609 127.727L102.53 130.837L100.77 134.667Z" fill="white"/>
<path fill-rule="evenodd" clip-rule="evenodd" d="M98.5 132.082L99.5801 133.322L100.43 131.492L98.5 132.082Z" fill="white"/>
<path fill-rule="evenodd" clip-rule="evenodd" d="M127.82 121.34L129.75 120.74L128.66 119.5L127.82 121.34Z" fill="white"/>
<path fill-rule="evenodd" clip-rule="evenodd" d="M115.631 125.091L125.721 121.981L127.481 118.151L124.081 114.281L120.051 115.521L115.631 125.091Z" fill="white"/>
<path fill-rule="evenodd" clip-rule="evenodd" d="M103.449 128.852L113.529 125.742L117.939 116.172L107.859 119.272L103.449 128.852Z" fill="black"/>
<path fill-rule="evenodd" clip-rule="evenodd" d="M93.9102 126.86L97.3102 130.74L101.35 129.49L105.76 119.93L95.6802 123.03L93.9102 126.86Z" fill="white"/>
<path fill-rule="evenodd" clip-rule="evenodd" d="M91.6406 124.272L92.7306 125.512L93.5707 123.672L91.6406 124.272Z" fill="white"/>
<path fill-rule="evenodd" clip-rule="evenodd" d="M120.971 113.518L122.901 112.928L121.811 111.688L120.971 113.518Z" fill="white"/>
<path fill-rule="evenodd" clip-rule="evenodd" d="M108.781 117.281L118.861 114.171L120.631 110.341L117.231 106.461L113.191 107.711L108.781 117.281Z" fill="white"/>
<path fill-rule="evenodd" clip-rule="evenodd" d="M96.5996 121.032L106.68 117.922L111.09 108.352L101.01 111.462L96.5996 121.032Z" fill="black"/>
<path fill-rule="evenodd" clip-rule="evenodd" d="M87.0605 119.049L90.4606 122.919L94.4905 121.679L98.9005 112.109L88.8306 115.209L87.0605 119.049Z" fill="white"/>
<path fill-rule="evenodd" clip-rule="evenodd" d="M84.7891 116.457L85.879 117.697L86.7191 115.867L84.7891 116.457Z" fill="white"/>
<path fill-rule="evenodd" clip-rule="evenodd" d="M114.109 105.713L116.039 105.113L114.959 103.883L114.109 105.713Z" fill="white"/>
<path fill-rule="evenodd" clip-rule="evenodd" d="M101.93 109.458L112.01 106.358L113.77 102.528L110.37 98.6484L106.34 99.8884L101.93 109.458Z" fill="white"/>
<path fill-rule="evenodd" clip-rule="evenodd" d="M89.75 113.219L99.8301 110.109L104.24 100.539L94.16 103.649L89.75 113.219Z" fill="black"/>
<path fill-rule="evenodd" clip-rule="evenodd" d="M80.2109 111.229L83.6108 115.109L87.6409 113.869L92.0509 104.289L81.9709 107.399L80.2109 111.229Z" fill="white"/>
<path fill-rule="evenodd" clip-rule="evenodd" d="M77.9395 108.647L79.0194 109.887L79.8694 108.047L77.9395 108.647Z" fill="white"/>
<path fill-rule="evenodd" clip-rule="evenodd" d="M107.26 97.8925L109.19 97.3025L108.11 96.0625L107.26 97.8925Z" fill="white"/>
<path fill-rule="evenodd" clip-rule="evenodd" d="M95.0801 101.646L105.16 98.5359L106.92 94.7059L103.52 90.8359L99.49 92.0759L95.0801 101.646Z" fill="white"/>
<path fill-rule="evenodd" clip-rule="evenodd" d="M82.8906 105.407L92.9707 102.297L97.3806 92.7266L87.3107 95.8265L82.8906 105.407Z" fill="black"/>
<path fill-rule="evenodd" clip-rule="evenodd" d="M73.3496 103.417L76.7596 107.287L80.7897 106.047L85.1997 96.4766L75.1196 99.5865L73.3496 103.417Z" fill="white"/>
<path fill-rule="evenodd" clip-rule="evenodd" d="M71.0801 100.832L72.17 102.072L73.02 100.242L71.0801 100.832Z" fill="white"/>
<path fill-rule="evenodd" clip-rule="evenodd" d="M95.4905 81.6697L94.4005 80.4297L93.5605 82.2697L95.4905 81.6697Z" fill="white"/>
<path fill-rule="evenodd" clip-rule="evenodd" d="M100.41 90.08L102.34 89.4901L101.25 88.25L100.41 90.08Z" fill="white"/>
<path fill-rule="evenodd" clip-rule="evenodd" d="M88.2305 93.8334L98.3005 90.7335L100.071 86.9034L96.6705 83.0234L92.6405 84.2734L88.2305 93.8334Z" fill="white"/>
<path fill-rule="evenodd" clip-rule="evenodd" d="M89.2791 85.2963L76.5891 96.3962L76.0391 97.5862L86.119 94.4863L90.5291 84.9062L89.2791 85.2963Z" fill="black"/>
<path fill-rule="evenodd" clip-rule="evenodd" d="M424.74 95.8207L407.66 80.8807C407.058 80.3608 406.566 79.7263 406.211 79.0143C405.856 78.3022 405.647 77.5267 405.595 76.733C405.543 75.9392 405.649 75.143 405.908 74.3907C406.166 73.6383 406.571 72.9449 407.1 72.3507L417.32 60.6907C418.383 59.4906 419.876 58.7585 421.475 58.6537C423.074 58.5488 424.65 59.0796 425.86 60.1307L442.91 75.0707C444.113 76.1284 444.849 77.6196 444.956 79.2181C445.063 80.8166 444.532 82.3923 443.48 83.6007L433.28 95.2807C432.218 96.4808 430.725 97.2129 429.125 97.3178C427.526 97.4227 425.95 96.8918 424.74 95.8407" fill="white"/>
<path fill-rule="evenodd" clip-rule="evenodd" d="M382.47 150.277L377.6 155.827L385.6 162.827C387.209 164.238 388.193 166.229 388.336 168.365C388.478 170.5 387.768 172.605 386.36 174.217L384.25 176.617C382.834 178.225 380.84 179.208 378.702 179.35C376.564 179.492 374.457 178.783 372.84 177.377L364.84 170.377L334.99 204.377C332.508 207.195 329.01 208.916 325.263 209.164C321.515 209.411 317.822 208.165 314.99 205.697L312.99 203.917C310.178 201.443 308.46 197.956 308.213 194.219C307.965 190.482 309.208 186.799 311.67 183.977L341.53 149.977L333.53 142.977C331.92 141.564 330.936 139.571 330.794 137.434C330.651 135.297 331.362 133.191 332.77 131.577L334.91 129.277C336.327 127.67 338.323 126.689 340.461 126.549C342.598 126.408 344.705 127.119 346.32 128.527L354.32 135.527L359.18 129.977L375.41 134.977L382.47 150.277Z" fill="white"/>
<path fill-rule="evenodd" clip-rule="evenodd" d="M389.321 142.477L383.651 148.947L377.48 135.547L387.561 138.647L389.321 142.477Z" fill="white"/>
<path fill-rule="evenodd" clip-rule="evenodd" d="M391.59 139.897L390.51 141.137L389.66 139.297L391.59 139.897Z" fill="white"/>
<path fill-rule="evenodd" clip-rule="evenodd" d="M374.46 132.896L360.34 128.546L366.01 122.086L370.04 123.326L374.46 132.896Z" fill="white"/>
<path fill-rule="evenodd" clip-rule="evenodd" d="M386.641 136.657L376.561 133.547L372.141 123.977L382.231 127.087L386.641 136.657Z" fill="black"/>
<path fill-rule="evenodd" clip-rule="evenodd" d="M396.18 134.667L392.78 138.547L388.74 137.307L384.33 127.727L394.41 130.837L396.18 134.667Z" fill="white"/>
<path fill-rule="evenodd" clip-rule="evenodd" d="M398.44 132.082L397.36 133.322L396.51 131.492L398.44 132.082Z" fill="white"/>
<path fill-rule="evenodd" clip-rule="evenodd" d="M369.119 121.34L367.189 120.74L368.279 119.5L369.119 121.34Z" fill="white"/>
<path fill-rule="evenodd" clip-rule="evenodd" d="M381.311 125.091L371.231 121.981L369.461 118.151L372.861 114.281L376.901 115.521L381.311 125.091Z" fill="white"/>
<path fill-rule="evenodd" clip-rule="evenodd" d="M393.49 128.852L383.41 125.742L379 116.172L389.08 119.272L393.49 128.852Z" fill="black"/>
<path fill-rule="evenodd" clip-rule="evenodd" d="M403.03 126.862L399.63 130.742L395.59 129.492L391.18 119.922L401.26 123.032L403.03 126.862Z" fill="white"/>
<path fill-rule="evenodd" clip-rule="evenodd" d="M405.301 124.272L404.211 125.512L403.371 123.672L405.301 124.272Z" fill="white"/>
<path fill-rule="evenodd" clip-rule="evenodd" d="M375.979 113.518L374.039 112.928L375.129 111.688L375.979 113.518Z" fill="white"/>
<path fill-rule="evenodd" clip-rule="evenodd" d="M388.16 117.281L378.08 114.171L376.32 110.341L379.71 106.461L383.75 107.711L388.16 117.281Z" fill="white"/>
<path fill-rule="evenodd" clip-rule="evenodd" d="M400.34 121.032L390.26 117.922L385.85 108.352L395.93 111.462L400.34 121.032Z" fill="black"/>
<path fill-rule="evenodd" clip-rule="evenodd" d="M409.879 119.049L406.479 122.919L402.449 121.679L398.039 112.109L408.109 115.209L409.879 119.049Z" fill="white"/>
<path fill-rule="evenodd" clip-rule="evenodd" d="M412.151 116.459L411.061 117.699L410.221 115.859L412.151 116.459Z" fill="white"/>
<path fill-rule="evenodd" clip-rule="evenodd" d="M382.83 105.713L380.9 105.113L381.98 103.883L382.83 105.713Z" fill="white"/>
<path fill-rule="evenodd" clip-rule="evenodd" d="M395.01 109.458L384.93 106.358L383.17 102.528L386.57 98.6484L390.6 99.8884L395.01 109.458Z" fill="white"/>
<path fill-rule="evenodd" clip-rule="evenodd" d="M407.189 113.219L397.119 110.109L392.699 100.539L402.789 103.649L407.189 113.219Z" fill="black"/>
<path fill-rule="evenodd" clip-rule="evenodd" d="M416.741 111.229L413.331 115.109L409.301 113.869L404.891 104.289L414.971 107.399L416.741 111.229Z" fill="white"/>
<path fill-rule="evenodd" clip-rule="evenodd" d="M419 108.647L417.92 109.887L417.07 108.047L419 108.647Z" fill="white"/>
<path fill-rule="evenodd" clip-rule="evenodd" d="M389.68 97.8925L387.75 97.3025L388.84 96.0625L389.68 97.8925Z" fill="white"/>
<path fill-rule="evenodd" clip-rule="evenodd" d="M401.859 101.646L391.79 98.5359L390.02 94.7059L393.42 90.8359L397.46 92.0759L401.859 101.646Z" fill="white"/>
<path fill-rule="evenodd" clip-rule="evenodd" d="M414.051 105.407L403.971 102.297L399.561 92.7266L409.641 95.8265L414.051 105.407Z" fill="black"/>
<path fill-rule="evenodd" clip-rule="evenodd" d="M423.59 103.417L420.19 107.287L416.15 106.047L411.74 96.4766L421.82 99.5865L423.59 103.417Z" fill="white"/>
<path fill-rule="evenodd" clip-rule="evenodd" d="M425.86 100.832L424.77 102.072L423.92 100.242L425.86 100.832Z" fill="white"/>
<path fill-rule="evenodd" clip-rule="evenodd" d="M401.461 81.6697L402.541 80.4297L403.391 82.2697L401.461 81.6697Z" fill="white"/>
<path fill-rule="evenodd" clip-rule="evenodd" d="M396.53 90.08L394.6 89.4901L395.69 88.25L396.53 90.08Z" fill="white"/>
<path fill-rule="evenodd" clip-rule="evenodd" d="M408.721 93.8334L398.641 90.7335L396.871 86.9034L400.271 83.0234L404.311 84.2734L408.721 93.8334Z" fill="white"/>
<path fill-rule="evenodd" clip-rule="evenodd" d="M407.66 85.2963L420.35 96.3962L420.9 97.5862L410.82 94.4863L406.41 84.9062L407.66 85.2963Z" fill="black"/>
<path d="M52.1 825.8C48.9 825.8 45.65 825.7 42.35 825.5C39.05 825.4 35.8 825.15 32.6 824.75C25.5 824.15 21.95 821.85 21.95 817.85C21.95 815.85 22.75 813.45 24.35 810.65C28.15 803.75 32.05 796.9 36.05 790.1C40.05 783.2 44 776.3 47.9 769.4C49.1 767.2 50.65 764.45 52.55 761.15C54.45 757.85 56.35 754.7 58.25 751.7C59.15 750.3 60.45 748.9 62.15 747.5C63.85 746 65.6 745.05 67.4 744.65C65.3 744.75 62.6 744.9 59.3 745.1C56.1 745.3 52.8 745.7 49.4 746.3C46.1 746.8 43.1 747.65 40.4 748.85C37.8 749.95 35.95 751.5 34.85 753.5C34.45 754.4 34.1 755.3 33.8 756.2C33.5 757.1 33.35 758 33.35 758.9C33.35 761.2 34.15 762.85 35.75 763.85C35.85 763.85 35.9 763.95 35.9 764.15C35.9 764.35 35.7 764.55 35.3 764.75C35 764.95 34.7 765 34.4 764.9C33.5 764.4 32.4 763.2 31.1 761.3C29.8 759.3 29 757.65 28.7 756.35C28.4 755.15 28.25 754.05 28.25 753.05C28.25 750.45 29.1 748.45 30.8 747.05C32.5 745.55 34.65 744.5 37.25 743.9C39.85 743.2 42.5 742.8 45.2 742.7C47.9 742.5 50.3 742.4 52.4 742.4C57.7 742.4 63 742.35 68.3 742.25C73.6 742.05 78.85 741.95 84.05 741.95C86.35 741.95 88.6 741.95 90.8 741.95C93.1 741.95 95.35 742.05 97.55 742.25C100.05 742.35 101.75 742.85 102.65 743.75C103.65 744.65 104.15 745.75 104.15 747.05C104.15 748.65 103.6 750.5 102.5 752.6C101.5 754.6 100.55 756.45 99.65 758.15C99.25 758.95 98.6 759.55 97.7 759.95C96.8 760.25 96.45 759.95 96.65 759.05C97.15 757.05 97.4 755.05 97.4 753.05C97.4 751.25 97.05 749.65 96.35 748.25C95.75 746.75 94.55 745.7 92.75 745.1C91.05 744.6 88.4 744.35 84.8 744.35C83.5 744.35 82.15 744.4 80.75 744.5C79.45 744.5 78.1 744.55 76.7 744.65C72.7 744.95 70 746 68.6 747.8C65.3 752.4 62.1 757.4 59 762.8C56 768.1 53.1 773.15 50.3 777.95C50.2 778.15 50.15 778.4 50.15 778.7C50.15 779.3 50.6 779.6 51.5 779.6C55 779.6 58.75 779.65 62.75 779.75C66.85 779.85 70.45 779.85 73.55 779.75C74.25 779.65 75.3 779.55 76.7 779.45C78.2 779.35 79.7 779.15 81.2 778.85C82.8 778.55 84 778.2 84.8 777.8C85.3 777.5 85.6 777.35 85.7 777.35C86.3 777.35 86.3 777.95 85.7 779.15C85.2 780.25 84.3 781.4 83 782.6C81.8 783.7 80.4 784.25 78.8 784.25C73.9 784.25 69.75 784.15 66.35 783.95C63.05 783.75 59.35 783.65 55.25 783.65C54.25 783.65 53.2 783.65 52.1 783.65C51 783.65 49.8 783.7 48.5 783.8C47.5 783.9 46.8 784.3 46.4 785C45.4 786.8 44.5 788.45 43.7 789.95C43 791.45 42.1 793.2 41 795.2C40.2 796.7 39.2 798.65 38 801.05C36.9 803.35 35.9 805.75 35 808.25C34.1 810.65 33.65 812.75 33.65 814.55C33.65 817.65 35.1 819.8 38 821C40.9 822.1 44.45 822.7 48.65 822.8C54.45 822.8 60.15 822.25 65.75 821.15C71.45 819.95 76.75 818 81.65 815.3C86.65 812.5 91 808.75 94.7 804.05C94.9 803.85 95.05 803.75 95.15 803.75C95.45 803.75 95.65 804.05 95.75 804.65C95.85 805.15 95.8 805.55 95.6 805.85C92.5 809.65 89.5 813.35 86.6 816.95C83.7 820.45 80.8 822.65 77.9 823.55C75.8 824.15 72.4 824.65 67.7 825.05C63 825.55 57.8 825.8 52.1 825.8ZM114.131 824.45C113.131 824.45 112.281 824.25 111.581 823.85C110.881 823.45 110.531 822.7 110.531 821.6C110.531 820.2 110.881 818.6 111.581 816.8C112.281 815 113.081 813.25 113.981 811.55C114.881 809.75 115.681 808.3 116.381 807.2C112.881 810.9 109.231 814.4 105.431 817.7C103.531 819.3 101.431 820.8 99.1309 822.2C96.8309 823.6 94.3809 824.3 91.7809 824.3C90.7809 824.3 90.0809 824 89.6809 823.4C89.2809 822.7 89.0809 821.9 89.0809 821C89.0809 820.5 89.1309 820.15 89.2309 819.95C89.7309 816.05 90.9809 812 92.9809 807.8C94.9809 803.6 97.4309 799.65 100.331 795.95C103.231 792.25 106.181 789.25 109.181 786.95C111.481 785.25 113.681 784.2 115.781 783.8C117.881 783.3 120.181 783.05 122.681 783.05H127.631C129.231 780.35 130.881 777.35 132.581 774.05C134.381 770.65 136.131 767.3 137.831 764C139.631 760.7 141.281 757.8 142.781 755.3C146.881 748.3 151.381 742.7 156.281 738.5C161.281 734.3 166.831 732.2 172.931 732.2C174.231 732.2 175.431 732.6 176.531 733.4C177.631 734.1 178.131 735.2 178.031 736.7L177.731 742.1C177.731 742.2 177.631 742.35 177.431 742.55C177.231 742.65 177.081 742.7 176.981 742.7C176.881 742.7 176.731 742.6 176.531 742.4C176.231 740.6 175.331 739.25 173.831 738.35C172.331 737.35 170.481 736.85 168.281 736.85C167.581 736.85 166.781 736.9 165.881 737C165.081 737.1 164.281 737.3 163.481 737.6C160.681 738.6 158.031 740.65 155.531 743.75C153.031 746.75 150.331 750.75 147.431 755.75C146.431 757.65 145.131 760.15 143.531 763.25C141.931 766.25 140.231 769.5 138.431 773C136.731 776.5 135.081 779.9 133.481 783.2C131.981 786.5 130.681 789.3 129.581 791.6C129.081 792.8 128.231 794.65 127.031 797.15C125.831 799.55 124.531 802.2 123.131 805.1C121.831 807.9 120.681 810.5 119.681 812.9C118.781 815.3 118.331 817 118.331 818C118.331 819.4 118.931 820.1 120.131 820.1C121.331 820.1 122.931 819.4 124.931 818C126.931 816.5 128.981 814.7 131.081 812.6C133.281 810.4 135.231 808.3 136.931 806.3C138.731 804.3 139.981 802.8 140.681 801.8C140.981 802.1 141.131 802.45 141.131 802.85C141.131 803.55 140.831 804.25 140.231 804.95C139.731 805.65 139.281 806.25 138.881 806.75C137.081 809.15 134.831 811.75 132.131 814.55C129.531 817.25 126.681 819.6 123.581 821.6C120.481 823.5 117.331 824.45 114.131 824.45ZM97.9309 819.2C99.1309 819.2 100.781 818.35 102.881 816.65C105.081 814.85 107.431 812.65 109.931 810.05C112.431 807.35 114.781 804.55 116.981 801.65C119.181 798.65 120.981 795.95 122.381 793.55C123.881 791.05 124.631 789.15 124.631 787.85C124.631 786.75 124.281 786 123.581 785.6C122.981 785.2 122.181 785 121.181 785C119.581 785 117.831 785.6 115.931 786.8C114.131 787.9 112.681 789 111.581 790.1C110.381 791.2 108.931 792.95 107.231 795.35C105.631 797.65 104.031 800.2 102.431 803C100.831 805.8 99.4809 808.5 98.3809 811.1C97.2809 813.7 96.7309 815.8 96.7309 817.4C96.7309 818.6 97.1309 819.2 97.9309 819.2ZM146.223 824.45C145.223 824.45 144.373 824.25 143.673 823.85C142.973 823.45 142.623 822.7 142.623 821.6C142.623 820.2 142.973 818.55 143.673 816.65C144.473 814.75 145.323 812.85 146.223 810.95C147.123 809.05 147.873 807.5 148.473 806.3C149.673 804 150.823 801.7 151.923 799.4C153.023 797.1 153.973 795.15 154.773 793.55C155.573 792.05 155.973 791.05 155.973 790.55C155.973 789.75 155.373 789.75 154.173 790.55C153.073 791.35 152.023 792.15 151.023 792.95C148.823 795.05 146.523 797.55 144.123 800.45C141.723 803.25 139.873 805.5 138.573 807.2C138.273 807.6 138.023 807.8 137.823 807.8C137.623 807.8 137.523 807.55 137.523 807.05C137.523 806.25 137.773 805.5 138.273 804.8C139.673 802.8 141.323 800.6 143.223 798.2C145.123 795.8 147.073 793.5 149.073 791.3C150.973 789.3 152.923 787.35 154.923 785.45C156.923 783.55 159.473 782.6 162.573 782.6C164.673 782.6 165.723 783.4 165.723 785C165.723 786.4 165.123 788 163.923 789.8C163.223 790.9 162.123 792.75 160.623 795.35C159.123 797.95 157.573 800.8 155.973 803.9C154.473 806.9 153.173 809.7 152.073 812.3C150.973 814.9 150.423 816.8 150.423 818C150.423 819.4 151.123 820.1 152.523 820.1C153.623 820.1 154.973 819.55 156.573 818.45C158.173 817.25 159.823 815.85 161.523 814.25C164.623 811.25 167.423 808 169.923 804.5C172.523 800.9 174.723 797.45 176.523 794.15C178.423 790.85 179.923 788.15 181.023 786.05C181.223 785.65 181.423 785.2 181.623 784.7C181.923 784.1 182.373 783.75 182.973 783.65C183.573 783.55 184.873 783.5 186.873 783.5C188.873 783.5 190.723 783.1 192.423 782.3H192.723C193.023 782.3 193.173 782.45 193.173 782.75C193.173 783.55 192.523 784.15 191.223 784.55C190.023 784.95 188.623 786.15 187.023 788.15C185.523 790.15 184.023 792.6 182.523 795.5C181.023 798.3 179.673 801.2 178.473 804.2C177.273 807.2 176.373 809.95 175.773 812.45C175.173 814.95 175.023 816.8 175.323 818C175.723 819.4 176.423 820.1 177.423 820.1C178.723 820.1 180.523 819.3 182.823 817.7C185.223 816.1 187.673 814.2 190.173 812C192.673 809.7 194.723 807.6 196.323 805.7C197.023 804.9 197.673 804.1 198.273 803.3C198.873 802.5 199.273 802 199.473 801.8C199.573 801.9 199.673 802.1 199.773 802.4C199.873 802.6 199.923 802.8 199.923 803C199.823 803.7 199.573 804.4 199.173 805.1C198.773 805.7 198.323 806.25 197.823 806.75C195.923 809.25 193.623 811.9 190.923 814.7C188.323 817.4 185.473 819.7 182.373 821.6C179.373 823.5 176.273 824.45 173.073 824.45C172.073 824.45 170.923 824.2 169.623 823.7C168.423 823.2 167.823 822.1 167.823 820.4C167.823 819.1 168.173 817.35 168.873 815.15C169.573 812.85 170.323 810.6 171.123 808.4C172.023 806.1 172.773 804.4 173.373 803.3C172.073 805.2 170.473 807.35 168.573 809.75C166.773 812.05 164.923 814.1 163.023 815.9C160.523 818.3 157.823 820.35 154.923 822.05C152.123 823.65 149.223 824.45 146.223 824.45ZM303.501 828.5C303.201 828.5 302.901 828.4 302.601 828.2C302.401 828 302.351 827.85 302.451 827.75C303.151 826.85 303.701 825.85 304.101 824.75C304.601 823.75 305.051 822.7 305.451 821.6C304.151 814.6 302.401 807.3 300.201 799.7C298.101 792.1 295.801 784.5 293.301 776.9C290.901 769.2 288.601 761.9 286.401 755C285.701 755.5 284.951 756.7 284.151 758.6C283.451 760.5 282.951 761.9 282.651 762.8C281.351 766.2 279.801 770.2 278.001 774.8C276.301 779.3 274.351 784 272.151 788.9C270.051 793.7 267.651 798.45 264.951 803.15C262.351 807.75 259.451 811.95 256.251 815.75C254.751 817.65 252.701 819.35 250.101 820.85C247.501 822.25 244.801 823.35 242.001 824.15C239.201 825.05 236.651 825.5 234.351 825.5C231.251 825.5 228.251 824.65 225.351 822.95C222.551 821.15 220.451 818.45 219.051 814.85C218.651 813.55 218.351 812.2 218.151 810.8C217.951 809.3 217.851 807.85 217.851 806.45C217.851 805.05 218.101 804.35 218.601 804.35C219.101 804.35 219.351 804.75 219.351 805.55C219.351 810.25 220.651 814.15 223.251 817.25C225.851 820.35 228.951 821.9 232.551 821.9C236.051 821.9 239.551 821.05 243.051 819.35C246.551 817.65 249.701 815.3 252.501 812.3C257.001 807.3 260.801 802 263.901 796.4C267.001 790.8 269.751 785 272.151 779C274.551 773 277.001 767 279.501 761C281.001 757.2 283.101 753.9 285.801 751.1C288.501 748.3 291.651 746.55 295.251 745.85H287.001C283.501 745.85 279.801 746 275.901 746.3C272.001 746.6 268.451 747.25 265.251 748.25C262.051 749.25 259.751 750.75 258.351 752.75C257.551 753.95 257.151 755.4 257.151 757.1C257.151 758.9 257.601 760.6 258.501 762.2C259.401 763.8 260.551 764.95 261.951 765.65C262.151 765.85 262.251 765.95 262.251 765.95C262.251 766.25 262.001 766.55 261.501 766.85C261.101 767.05 260.651 767.1 260.151 767C259.351 766.5 258.351 765.7 257.151 764.6C255.951 763.4 254.851 762.15 253.851 760.85C252.951 759.55 252.351 758.45 252.051 757.55C251.651 756.35 251.451 755.15 251.451 753.95C251.451 751.55 252.301 749.6 254.001 748.1C255.801 746.6 258.101 745.45 260.901 744.65C263.701 743.85 266.701 743.3 269.901 743C273.201 742.6 276.351 742.4 279.351 742.4C282.351 742.3 284.951 742.25 287.151 742.25H305.301C305.801 742.15 305.801 742.5 305.301 743.3C304.901 744.1 304.351 744.9 303.651 745.7C303.051 746.4 302.551 746.75 302.151 746.75C301.151 746.65 299.601 746.85 297.501 747.35C295.501 747.75 294.101 748.25 293.301 748.85C293.601 752.65 294.301 757.1 295.401 762.2C296.601 767.3 298.001 772.7 299.601 778.4C301.201 784 302.951 789.65 304.851 795.35C306.851 800.95 308.801 806.2 310.701 811.1C312.301 807.3 314.101 802.65 316.101 797.15C318.101 791.65 320.201 785.8 322.401 779.6C324.701 773.4 327.051 767.4 329.451 761.6C331.951 755.7 334.401 750.45 336.801 745.85C339.301 741.25 341.751 737.85 344.151 735.65C345.351 734.55 346.801 733.7 348.501 733.1C350.201 732.4 351.801 732.05 353.301 732.05C354.701 732.05 355.901 732.4 356.901 733.1C357.901 733.7 358.351 734.7 358.251 736.1L358.101 741.5C358.101 741.6 357.851 741.7 357.351 741.8C356.851 741.9 356.651 741.9 356.751 741.8C356.851 740.5 356.351 739.6 355.251 739.1C354.151 738.5 353.251 738.2 352.551 738.2C350.451 738.1 348.201 739.4 345.801 742.1C343.501 744.8 341.101 748.35 338.601 752.75C336.101 757.15 333.651 762 331.251 767.3C328.851 772.5 326.551 777.75 324.351 783.05C322.251 788.25 320.351 793.05 318.651 797.45C316.951 801.85 315.551 805.3 314.451 807.8C313.451 809.9 312.951 811.95 312.951 813.95C312.951 814.25 312.951 814.55 312.951 814.85C312.951 815.15 313.001 815.45 313.101 815.75C313.101 816.15 313.151 816.6 313.251 817.1C313.451 817.6 313.601 818.1 313.701 818.6C313.701 818.7 313.701 818.8 313.701 818.9C313.801 819 313.851 819.15 313.851 819.35C313.851 820.15 313.451 820.85 312.651 821.45C311.651 822.15 310.551 822.75 309.351 823.25C308.651 823.55 307.651 824.3 306.351 825.5C305.151 826.8 304.401 827.7 304.101 828.2C303.901 828.4 303.701 828.5 303.501 828.5ZM361.357 766.7C359.957 766.7 358.957 766.25 358.357 765.35C357.957 764.85 357.757 764.2 357.757 763.4C357.757 761.8 358.507 760.5 360.007 759.5C361.107 758.9 362.107 758.6 363.007 758.6C364.507 758.6 365.557 759.05 366.157 759.95C366.557 760.45 366.757 761.1 366.757 761.9C366.757 763.5 365.957 764.8 364.357 765.8C363.457 766.4 362.457 766.7 361.357 766.7ZM335.257 824.45C334.257 824.45 333.407 824.25 332.707 823.85C332.107 823.45 331.807 822.7 331.807 821.6C331.807 820.2 332.157 818.55 332.857 816.65C333.657 814.75 334.507 812.85 335.407 810.95C336.407 809.05 337.157 807.5 337.657 806.3C338.357 804.9 339.207 803.1 340.207 800.9C341.307 798.6 342.307 796.45 343.207 794.45C344.207 792.35 344.907 790.9 345.307 790.1C343.907 791.6 342.207 793.5 340.207 795.8C338.307 798 336.507 800.15 334.807 802.25C333.107 804.35 331.807 806 330.907 807.2C330.607 807.6 330.357 807.8 330.157 807.8C329.957 807.8 329.857 807.55 329.857 807.05C329.857 806.25 330.107 805.5 330.607 804.8C332.507 802.4 334.607 799.7 336.907 796.7C339.307 793.7 341.457 790.95 343.357 788.45C345.257 785.85 346.457 784.15 346.957 783.35C348.057 783.15 349.657 782.85 351.757 782.45C353.957 782.05 355.457 781.5 356.257 780.8C356.557 780.5 356.857 780.35 357.157 780.35C357.357 780.35 357.457 780.55 357.457 780.95C357.557 781.25 357.457 781.6 357.157 782C356.557 782.7 355.507 784.4 354.007 787.1C352.507 789.8 350.907 792.8 349.207 796.1C347.607 799.3 346.107 802.2 344.707 804.8C343.307 807.5 342.107 810.1 341.107 812.6C340.107 815.1 339.607 816.9 339.607 818C339.607 819.4 340.307 820.1 341.707 820.1C343.007 820.1 344.657 819.3 346.657 817.7C348.757 816.1 350.857 814.2 352.957 812C355.057 809.7 356.907 807.6 358.507 805.7C359.007 805.1 359.607 804.4 360.307 803.6C361.107 802.7 361.607 802.15 361.807 801.95C362.007 802.15 362.107 802.5 362.107 803C362.007 803.7 361.757 804.4 361.357 805.1C360.957 805.7 360.557 806.25 360.157 806.75C358.057 809.35 355.757 812.05 353.257 814.85C350.757 817.55 348.007 819.85 345.007 821.75C342.007 823.55 338.757 824.45 335.257 824.45ZM359.914 826.25C359.514 826.25 359.514 825.8 359.914 824.9C360.414 824 360.864 823 361.264 821.9C361.764 820.8 362.264 819.6 362.764 818.3C363.764 815.9 364.864 813.2 366.064 810.2C367.264 807.2 368.414 804.3 369.514 801.5C370.614 798.6 371.564 796.15 372.364 794.15C373.264 792.05 373.864 790.7 374.164 790.1C372.764 791.6 371.064 793.5 369.064 795.8C367.164 798 365.364 800.15 363.664 802.25C361.964 804.35 360.664 806 359.764 807.2C359.464 807.6 359.214 807.8 359.014 807.8C358.814 807.8 358.714 807.55 358.714 807.05C358.714 806.25 358.964 805.5 359.464 804.8C361.364 802.4 363.464 799.7 365.764 796.7C368.164 793.7 370.314 790.95 372.214 788.45C374.114 785.85 375.314 784.15 375.814 783.35C376.914 783.15 378.514 782.85 380.614 782.45C382.814 782.05 384.314 781.5 385.114 780.8C385.414 780.5 385.714 780.35 386.014 780.35C386.214 780.35 386.314 780.55 386.314 780.95C386.414 781.25 386.314 781.6 386.014 782C385.414 782.7 384.364 784.35 382.864 786.95C381.464 789.45 379.914 792.25 378.214 795.35C376.614 798.45 375.114 801.25 373.714 803.75C374.914 802.15 376.214 800.6 377.614 799.1C379.014 797.6 380.364 796.15 381.664 794.75C382.864 793.55 384.514 792.05 386.614 790.25C388.714 788.45 390.914 786.8 393.214 785.3C395.514 783.8 397.514 782.95 399.214 782.75C399.614 782.65 399.964 782.6 400.264 782.6C400.664 782.6 400.964 782.6 401.164 782.6C403.364 782.6 404.464 783.4 404.464 785C404.464 786.2 403.814 787.8 402.514 789.8C401.814 790.9 400.714 792.75 399.214 795.35C397.814 797.85 396.364 800.6 394.864 803.6C393.464 806.5 392.214 809.25 391.114 811.85C390.114 814.35 389.614 816.2 389.614 817.4C389.614 818.8 390.314 819.5 391.714 819.5C393.414 819.5 395.264 818.65 397.264 816.95C399.364 815.25 401.614 813.1 404.014 810.5C406.414 807.8 408.814 804.95 411.214 801.95C411.414 802.15 411.514 802.5 411.514 803C411.514 803.7 411.264 804.4 410.764 805.1C410.364 805.7 409.964 806.25 409.564 806.75C408.564 808.05 407.214 809.7 405.514 811.7C403.914 813.6 402.264 815.5 400.564 817.4C398.864 819.2 397.314 820.65 395.914 821.75C394.914 822.45 393.614 823.2 392.014 824C390.414 824.8 388.814 825.2 387.214 825.2C385.414 825.2 384.164 824.75 383.464 823.85C382.764 822.85 382.414 821.65 382.414 820.25C382.414 818.65 382.714 816.95 383.314 815.15C383.914 813.35 384.564 811.65 385.264 810.05C386.064 808.35 386.664 807.1 387.064 806.3C388.864 802.8 390.514 799.5 392.014 796.4C393.514 793.3 394.564 791.1 395.164 789.8C395.464 789.2 395.614 788.7 395.614 788.3C395.614 787.6 395.064 787.55 393.964 788.15C392.864 788.75 391.514 789.65 389.914 790.85C388.414 792.05 387.014 793.25 385.714 794.45C384.414 795.55 383.564 796.3 383.164 796.7C379.464 800.6 376.214 804.95 373.414 809.75C370.714 814.45 368.414 819.3 366.514 824.3C365.214 824.4 363.914 824.75 362.614 825.35C361.314 825.95 360.414 826.25 359.914 826.25ZM432.676 766.7C431.276 766.7 430.276 766.25 429.676 765.35C429.276 764.85 429.076 764.2 429.076 763.4C429.076 761.8 429.876 760.5 431.476 759.5C432.376 758.9 433.376 758.6 434.476 758.6C435.876 758.6 436.876 759.05 437.476 759.95C437.876 760.45 438.076 761.1 438.076 761.9C438.076 763.5 437.276 764.8 435.676 765.8C434.776 766.4 433.776 766.7 432.676 766.7ZM360.976 876.5C357.176 876.5 353.526 875.6 350.026 873.8C346.426 872.1 343.776 869.45 342.076 865.85C341.476 864.55 341.076 863.15 340.876 861.65C340.676 860.25 340.576 858.85 340.576 857.45V855.8C340.576 855 340.676 854.25 340.876 853.55C341.076 852.95 341.576 852.65 342.376 852.65C342.676 852.65 342.826 852.75 342.826 852.95C342.826 853.55 342.776 854.15 342.676 854.75C342.476 855.35 342.376 856 342.376 856.7C342.376 861.3 343.876 864.8 346.876 867.2C349.776 869.6 353.426 870.8 357.826 870.8C359.626 870.8 361.476 870.6 363.376 870.2C365.276 869.8 367.076 869.25 368.776 868.55C375.076 865.85 380.576 862 385.276 857C389.876 852.1 393.926 846.55 397.426 840.35C400.926 834.15 404.076 827.85 406.876 821.45C409.276 815.85 411.276 810.6 412.876 805.7C414.476 800.8 415.726 796.75 416.626 793.55C417.626 790.35 418.276 788.6 418.576 788.3C420.176 786.7 422.276 785.4 424.876 784.4C427.476 783.3 429.526 782.75 431.026 782.75C432.226 782.75 432.826 783.05 432.826 783.65C432.826 784.45 432.376 784.85 431.476 784.85C430.376 784.85 429.376 785.15 428.476 785.75C427.576 786.25 426.876 786.9 426.376 787.7C425.476 789 424.176 791.35 422.476 794.75C420.876 798.15 419.076 802.1 417.076 806.6C415.176 811 413.276 815.5 411.376 820.1C409.476 824.6 407.726 828.75 406.126 832.55C403.726 838.25 401.026 843.8 398.026 849.2C394.926 854.7 391.276 859.6 387.076 863.9C382.876 868.3 377.926 871.75 372.226 874.25C368.826 875.75 365.076 876.5 360.976 876.5ZM449.141 824.45C448.141 824.45 447.291 824.25 446.591 823.85C445.891 823.45 445.541 822.7 445.541 821.6C445.541 820.2 445.891 818.6 446.591 816.8C447.291 815 448.091 813.25 448.991 811.55C449.891 809.75 450.691 808.3 451.391 807.2C447.891 810.9 444.241 814.4 440.441 817.7C438.541 819.3 436.441 820.8 434.141 822.2C431.841 823.6 429.391 824.3 426.791 824.3C425.791 824.3 425.091 824 424.691 823.4C424.291 822.7 424.091 821.9 424.091 821C424.091 820.5 424.141 820.15 424.241 819.95C424.741 816.05 425.991 812 427.991 807.8C429.991 803.6 432.441 799.65 435.341 795.95C438.241 792.25 441.191 789.25 444.191 786.95C447.591 784.35 451.341 783.05 455.441 783.05H472.691C473.191 783.05 473.441 783.25 473.441 783.65C473.441 784.45 472.991 784.85 472.091 784.85C471.091 784.85 470.091 785.5 469.091 786.8C468.091 788 467.341 789 466.841 789.8C466.141 790.9 465.041 792.75 463.541 795.35C462.041 797.95 460.491 800.8 458.891 803.9C457.391 806.9 456.091 809.7 454.991 812.3C453.891 814.9 453.341 816.8 453.341 818C453.341 819.4 454.041 820.1 455.441 820.1C456.941 820.1 458.641 819.4 460.541 818C462.441 816.6 464.341 814.9 466.241 812.9C468.241 810.8 470.041 808.75 471.641 806.75C473.341 804.65 474.691 803 475.691 801.8C476.291 802.4 476.241 803.25 475.541 804.35C474.941 805.35 474.391 806.15 473.891 806.75C471.891 809.35 469.591 812.05 466.991 814.85C464.391 817.55 461.541 819.85 458.441 821.75C455.441 823.55 452.341 824.45 449.141 824.45ZM432.941 819.2C434.141 819.2 435.791 818.35 437.891 816.65C440.091 814.85 442.441 812.65 444.941 810.05C447.441 807.35 449.791 804.55 451.991 801.65C454.191 798.65 455.991 795.95 457.391 793.55C458.891 791.05 459.641 789.15 459.641 787.85C459.641 786.75 459.291 786 458.591 785.6C457.991 785.2 457.191 785 456.191 785C454.591 785 452.841 785.6 450.941 786.8C449.141 787.9 447.691 789 446.591 790.1C445.391 791.2 443.941 792.95 442.241 795.35C440.641 797.65 439.041 800.2 437.441 803C435.841 805.8 434.491 808.5 433.391 811.1C432.291 813.7 431.741 815.8 431.741 817.4C431.741 818.6 432.141 819.2 432.941 819.2Z" fill="white"/>
</svg>
